<?xml version="1.0" encoding="UTF-8"?>
<svg id="body_front" xmlns="http://www.w3.org/2000/svg" viewBox="0 0 1500 3000">
  <defs>
    <style>
      .cls-1 {
        fill: #454758;
      }

      .cls-1, .cls-2 {
        stroke-width: 0px;
      }

      .cls-2 {
        fill: #8c77b6;
      }
    </style>
  </defs>
  <g>
    <path id="silhouette" class="cls-1" d="m750,102.69s-44.01-2.12-84.35,30.15c-40.34,32.27-45.86,53.5-45.86,78.98s3.82,28.87-4.67,45.86c-8.49,16.98-7.22,39.91-2.97,51.38s29.3,39.91,29.3,39.91c0,0-.42,6.37,7.64,25.48,8.07,19.11,24.2,55.62,9.77,84.92-14.44,29.3-90.44,60.3-137.15,79.83-46.71,19.53-87.47,31.85-116.34,78.98-28.87,47.13-29.3,107-27.18,139.7s6.37,56.9,6.37,56.9c0,0-19.96,25.05-27.6,40.76s-14.86,35.24-20.38,57.32c-5.52,22.08-7.22,56.47-7.22,56.47,0,0-25.9,18.26-39.06,34.39-13.16,16.14-33.97,38.64-45.43,69.21-11.46,30.57-19.53,85.77-33.12,123.14-13.59,37.37-18.26,43.74-25.48,57.75-7.22,14.01-19.53,42.04-19.53,42.04,0,0-22.93,9.77-42.89,25.05-19.96,15.29-30.57,23.78-35.24,30.57-4.67,6.79-4.85,17.5,1.14,21.43,5.99,3.93,13.1-.19,19.65-4.3,6.55-4.12,14.6-8.98,14.6-8.98,0,0-25.45,49.41-26.76,66.07-1.31,16.66-5.61,33.32,26.39,46.42,32.01,13.1,79.17,9.73,90.4-16.47,11.23-26.2,26.02-68.13,27.33-92.65,1.31-24.52-.75-28.26-.75-28.26,0,0,27.89-59.14,56.9-90.78,29.01-31.63,46.59-50.06,72.35-72.55,25.76-22.49,55.6-65.82,62.55-105.89,6.95-40.06,3.68-59.28,3.68-59.28,0,0,10.2-15.4,23.5-29.4,13.3-14,21.7-25.73,25.73-36.75,4.03-11.03,7.53-20.48,7.53-20.48,0,0,12.25,30.63,28,54.43,15.75,23.8,33.37,45.7,34.82,61.98,1.45,16.28-1.74,50.29-14.54,85.76-12.79,35.47-12.5,74.42-6.98,96.52,5.52,22.09,7.27,39.25,6.69,64.54s-2.62,55.53-12.5,88.09c-9.88,32.56-29.65,96.81-42.15,148.27-12.5,51.46-17.73,104.37-17.44,150.3.29,45.93,3.2,111.64,10.18,155.83,6.98,44.19,19.48,70.35,28.2,121.52,8.72,51.17-7.27,103.21-14.83,141.29-7.56,38.08-25.18,130.47-22.44,211.06,4.11,102.55,26.38,174,39.44,229.23,12.72,53.77,27.21,94.82,28.34,149.79,1.11,54.12-8.83,68.2-19.6,82.38-17.05,22.44-47.28,45.29-69.6,59.09-23.29,14.4-60.51,40.22-60.51,50.57,0,7.67,13.35,18.75,53.69,21.87,39.76,3.08,90.37.76,124.66-11.84,24.2-8.9,32.07-10.44,48.34-10.65,39.22-.52,39.21-17.21,38.65-52.79-.57-36.07-9.37-81.25-12.5-159.09-3.12-77.83-1.91-103.43-2.27-114.77-.85-26.99-2.3-41.01,19.89-103.12,22.18-62.11,21.99-109.13,19.03-155.96-2.96-46.83-15.81-99.67-20.74-119.88-4.93-20.21-5.58-32.48,3.41-51.99,9.64-20.93,26.78-86.39,32.95-145.45,6.26-59.92,9.39-104.46,11.36-144.88,1.97-40.42,3.07-64.24,13.92-118.46,10.85-54.23,17.56-184.29,17.56-184.29,0,0,3.32,1.91,14.14,1.94V102.69Z"/>
    <g>
      <path id="chest" class="cls-2" d="m711.63,614.11s-42.44-9.96-62.58-13.67-40.73-12.19-61.93,0-45,33.48-56.13,50.7-22.19,38.49-33.32,56.51c-4.88,7.9-10.57,17.29-15.41,25.35s-.68,18.18,8.22,20.8c3.95,1.16,8.38,2.84,13.14,5.25,18.81,9.54,17.75,19.61,30.47,33.12s30.49,21.38,55.93,24.82c25.44,3.44,43.01-9.37,70.31-11.23,11.92-.81,29.04-.67,44.53-.27,20.4.54,37.21-15.88,37.18-36.28-.06-38.87-.1-95.57.07-109.01.26-20.93-6.82-37.85-30.47-46.11Z"/>
      <path id="shoulders" class="cls-2" d="m585.35,580.25s-17.89-12.12-56.63-13.12-66.21,15.23-85.41,36.75c-19.2,21.52-36.75,47.01-42.7,85.41-5.96,38.4-5,46.6-3.34,65.8,1.66,19.2,6.08,41.66,6.08,41.66,0,0,31.7-26.81,51.57-56.28,19.86-29.46,51.42-95.47,80.5-122.38s49.93-37.84,49.93-37.84Z"/>
      <path id="adductors" class="cls-2" d="m652.72,1412.21s8.53,35.29,11.42,73.29c2.89,38,3.95,55.75,3.24,83.1-.31,11.89-.58,22.97-.79,31.71-.26,10.71,2.3,21.26,7.23,30.76,2.83,5.46,5.93,12.74,8.37,21.82,6.01,22.33,11.74,65.86,11.74,65.86,0,0,5.24-9.86,7.24-20.74s12.03-65,13.46-117.4c.55-20.03.89-36.09,1.09-48.28.32-18.52-3.34-30.52-13.96-45.69-5.22-7.46-10.75-15.59-14.99-22.45-11.17-18.04-34.05-51.98-34.05-51.98Z"/>
      <path id="biceps" class="cls-2" d="m464.66,772.78c-16.26,1.4-32.77,27.5-43.97,34.85-11.2,7.35-29.04,19.24-43.74,50.39-14.7,31.14-22.74,56.33-26.59,90.27-3.85,33.94-3.08,56.82,4.62,65.57,7.7,8.75,26.94,21.69,71.73-27.99,44.79-49.69,49.34-96.92,48.99-112.32-.35-15.4,1.33-39.54,10.81-61.93s4.94-33.59-3.81-37.09-18.03-1.75-18.03-1.75Z"/>
      <path id="lats" class="cls-2" d="m509.64,792.72s1.4,16.1-6.3,33.94c-7.7,17.84-12.6,32.54-4.9,60.18,7.7,27.64,20.99,58.08,30.79,73.13s24.14,32.54,24.14,32.54c0,0-1.05-18.89-4.2-29.04s-9.45-21.34,4.2-41.64,11.2-39.19,10.5-49.69c-.34-5.14-.85-13.81-1.29-21.32-.49-8.56-5.45-16.2-13.01-20.25-4.8-2.57-10.23-5.81-14.75-9.37-10.85-8.54-25.19-28.49-25.19-28.49Z"/>
      <path id="abductors" class="cls-2" d="m594.36,1317.16s-13.02-6.98-21.38-16.27-18.59-25.33-18.59-25.33c0,0,1.63,20.69-4.18,59.96-5.81,39.28-15.11,65.54-22.78,89.71s-18.59,51.19-23.24,72.78-2.56,30.88-2.56,30.88c0,0,5.35-1.86,16.97-25.8s20.69-61.13,33.47-97.85c12.78-36.72,18.13-50.2,28.59-67.17s13.71-20.91,13.71-20.91Z"/>
      <g>
        <path class="cls-2" d="m609.23,1332.03s-16.73,17.2-27.19,41.6-23.01,65.54-28.59,96.92-17.97,112.68-18.92,166.62c-.95,53.93,2.86,120.87,16.18,162.43,13.32,41.56,25.7,43.46,34.26,43.15,8.57-.32,38.39-22.84,47.27-98.03s13.32-113.89,13.64-159.89-1.9-118.65-7.3-156.08c-5.39-37.44-14.59-69.79-19.03-79.95-4.44-10.15-10.32-16.76-10.32-16.76Z"/>
        <path class="cls-2" d="m659.85,1641.52s4.74,91.81-23.28,164.22-58.62,81.03-54.74,128.02c3.88,46.98,32.76,64.66,53.45,65.52,20.69.86,39.22-25.43,46.12-71.12s10.48-126.29,3.95-171.55c-6.54-45.26-25.5-115.09-25.5-115.09Z"/>
        <path class="cls-2" d="m523.64,1524.28s-19.83,14.66-26.29,43.53c-6.47,28.88-16.38,93.1-12.5,156.47,3.88,63.36,12.5,143.54,31.9,179.74,19.4,36.21,38.79,53.02,41.81-2.59s-23.28-77.59-31.9-121.55-15.95-87.5-10.78-150.43c5.17-62.93,7.76-105.17,7.76-105.17Z"/>
      </g>
      <g>
        <path class="cls-2" d="m641.88,2171.01s20.22,40.01,21.08,138.53-25.81,141.98-25.81,141.98c0,0-10.33-44.31-7.31-135.95s12.05-144.56,12.05-144.56Z"/>
        <path class="cls-2" d="m505.07,2134.01s-30.55,65.18-18.07,205.22c12.48,140.04,40.44,174.03,55.07,220.92s26.24,90.35,31.41,104.55,10.76,29.69,12.05-12.05c1.29-41.73-4.3-184.14-9.47-260.72-5.16-76.58-15.06-123.91-23.66-142.41-8.6-18.5-22.37-27.1-33.13-60.23-10.76-33.13-14.2-55.28-14.2-55.28Z"/>
      </g>
      <g>
        <path class="cls-2" d="m323.66,1005.06s-26.94,16.1-38.84,36.74c-11.9,20.64-24.49,37.44-27.29,61.93-2.8,24.49-9.61,57.08-25.35,94.52-2.93,6.96-5.97,13.72-9,20.13-5.61,11.89,9.23,22.85,18.99,14.04,13.93-12.58,28.79-27.88,40.91-44.78,32.89-45.84,45.32-66.01,52.31-111.15,7-45.14,2.8-54.93-2.45-62.28-5.25-7.35-9.29-9.14-9.29-9.14Z"/>
        <path class="cls-2" d="m420.7,1018.11s-12.02,20.13-31.24,22.53c-19.23,2.4-36.05-3.91-36.05-3.91,0,0,2.7,41.46-10.21,76.61-12.92,35.15-23.43,61.29-56.78,97.34-33.35,36.05-98.24,89.22-98.24,89.22,0,0,7.81,12.62,21.93,13.52,14.12.9,25.54-2.4,25.54-2.4,0,0,25.54-46.87,55.28-81.41,29.74-34.55,81.71-71.8,101.24-106.65,19.53-34.85,23.82-46.56,25.88-65.19,2.06-18.63,2.66-39.66,2.66-39.66Z"/>
      </g>
      <g>
        <path class="cls-2" d="m634.73,1087.17s1.63-71.42-17.11-98.84c-18.74-27.43-27.97-31.77-36.93-35.57-2.24-.95-4.67-2.15-7.05-3.42-4.55-2.43-9.71,2.01-8.04,6.9,3.47,10.17,7.42,24.17,8.57,37.8.9,10.73,1.38,21.27,1.64,29.92.38,12.95,7.25,24.84,18.3,31.62,5.27,3.23,10.59,6.5,14.27,8.79,10.05,6.25,26.34,22.81,26.34,22.81Z"/>
        <path class="cls-2" d="m568.74,1062.46s-8.96,27.15-8.96,37.47,0,15.48,17.11,30.68c17.11,15.21,49.96,49.69,49.96,49.69,0,0,3.68-20.91,4.56-44.53s-7.27-36.12-26.01-48.61c-18.74-12.49-36.66-24.71-36.66-24.71Z"/>
        <path class="cls-2" d="m616.26,1204.74c-19.17-28.64-62.46-71.78-62.46-71.78,0,0-13.31,21-9.78,54.95,3.53,33.94,18.74,63.54,38.02,86.62,19.28,23.08,22,24.71,30.14,30.68s23.08,11.95,23.08,11.95c0,0-1.78-60.32-4.73-75.86-2.95-15.54-6.5-24.94-14.28-36.56Z"/>
      </g>
      <g>
        <path class="cls-2" d="m742.11,863.77c0,9.13-6.67,16.95-15.7,18.26s-21.51,4.15-33.15,9.97c-23.29,11.65-50.68,29.12-61.25,35.37-10.57,6.25-24.59,15.1-36.88-7.55s-22-48.53-13.16-67.29c8.84-18.76,34.94-21.14,77.43-27.39,24.92-3.67,49.06-3.92,64.77-3.51,9.99.26,17.95,8.46,17.95,18.46v23.68Z"/>
        <path class="cls-2" d="m742.11,972.42c0,10.32-8.46,18.68-18.78,18.46-7.32-.16-15.89.07-23.99,1.29-19.98,3.01-22.77,4.3-31.36,7.52-8.59,3.22-18.47,6.87-24.7-7.09-6.23-13.96-13.32-29.21-11.6-37.8s15.68-21.05,39.09-33.51c23.41-12.46,32-16.54,45.97-20.84.64-.2,1.28-.39,1.92-.57,11.76-3.39,23.46,5.54,23.46,17.78v54.76Z"/>
        <path class="cls-2" d="m742.11,1023.53c0-10.18-8.24-18.48-18.43-18.46-14.29.02-33.51,1.28-44.76,7.09-19.55,10.1-27.06,29.21-26.85,46.61s.21,38.88,11.81,54.34c11.6,15.47,12.89,19.55,34.37,19.76,8.87.09,17.89.1,25.42.09,10.18-.02,18.43-8.28,18.43-18.46v-90.97Z"/>
        <path class="cls-2" d="m742.11,1165.03c0-10.08-8.08-18.29-18.15-18.46-10.43-.17-22.63-.19-28.7.47-11.81,1.29-24.7,1.29-28.35,30.93s-4.73,79.15,3.44,117.6,23.26,80.33,32.79,100.31c9.53,19.98,20.05,35.44,26.49,40.81.06.05.13.11.19.16,4.91,4.03,12.3.45,12.3-5.9v-265.92Z"/>
      </g>
      <path id="traps" class="cls-2" d="m661.71,488.98c5.39-3.68,12.78-.47,13.73,5.99s1.45,28.15,2.72,34.61c2.66,13.53,6.43,24.12,9.88,31.54s6.89,19.08-7.68,22.79-49.29-6.89-62.8-11.39-38.11-11.93-48.44-14.32c-.1-.02-.21-.05-.31-.07-8.23-1.89-9.41-13.12-1.75-16.65,13.81-6.36,30.95-14.49,44.72-21.7,17.49-9.16,37.49-22.3,49.93-30.8Z"/>
    </g>
  </g>
  <g>
    <path id="silhouette-2" data-name="silhouette" class="cls-1" d="m750,102.69s44.01-2.12,84.35,30.15c40.34,32.27,45.86,53.5,45.86,78.98s-3.82,28.87,4.67,45.86c8.49,16.98,7.22,39.91,2.97,51.38s-29.3,39.91-29.3,39.91c0,0,.42,6.37-7.64,25.48-8.07,19.11-24.2,55.62-9.77,84.92,14.44,29.3,90.44,60.3,137.15,79.83,46.71,19.53,87.47,31.85,116.34,78.98,28.87,47.13,29.3,107,27.18,139.7s-6.37,56.9-6.37,56.9c0,0,19.96,25.05,27.6,40.76s14.86,35.24,20.38,57.32c5.52,22.08,7.22,56.47,7.22,56.47,0,0,25.9,18.26,39.06,34.39,13.16,16.14,33.97,38.64,45.43,69.21,11.46,30.57,19.53,85.77,33.12,123.14,13.59,37.37,18.26,43.74,25.48,57.75,7.22,14.01,19.53,42.04,19.53,42.04,0,0,22.93,9.77,42.89,25.05,19.96,15.29,30.57,23.78,35.24,30.57,4.67,6.79,4.85,17.5-1.14,21.43-5.99,3.93-13.1-.19-19.65-4.3-6.55-4.12-14.6-8.98-14.6-8.98,0,0,25.45,49.41,26.76,66.07,1.31,16.66,5.61,33.32-26.39,46.42-32.01,13.1-79.17,9.73-90.4-16.47-11.23-26.2-26.02-68.13-27.33-92.65-1.31-24.52.75-28.26.75-28.26,0,0-27.89-59.14-56.9-90.78-29.01-31.63-46.59-50.06-72.35-72.55-25.76-22.49-55.6-65.82-62.55-105.89-6.95-40.06-3.68-59.28-3.68-59.28,0,0-10.2-15.4-23.5-29.4-13.3-14-21.7-25.73-25.73-36.75-4.03-11.03-7.53-20.48-7.53-20.48,0,0-12.25,30.63-28,54.43-15.75,23.8-33.37,45.7-34.82,61.98-1.45,16.28,1.74,50.29,14.54,85.76,12.79,35.47,12.5,74.42,6.98,96.52-5.52,22.09-7.27,39.25-6.69,64.54s2.62,55.53,12.5,88.09c9.88,32.56,29.65,96.81,42.15,148.27,12.5,51.46,17.73,104.37,17.44,150.3-.29,45.93-3.2,111.64-10.18,155.83-6.98,44.19-19.48,70.35-28.2,121.52-8.72,51.17,7.27,103.21,14.83,141.29,7.56,38.08,25.18,130.47,22.44,211.06-4.11,102.55-26.38,174-39.44,229.23-12.72,53.77-27.21,94.82-28.34,149.79-1.11,54.12,8.83,68.2,19.6,82.38,17.05,22.44,47.28,45.29,69.6,59.09,23.29,14.4,60.51,40.22,60.51,50.57,0,7.67-13.35,18.75-53.69,21.87-39.76,3.08-90.37.76-124.66-11.84-24.2-8.9-32.07-10.44-48.34-10.65-39.22-.52-39.21-17.21-38.65-52.79.57-36.07,9.37-81.25,12.5-159.09,3.12-77.83,1.91-103.43,2.27-114.77.85-26.99,2.3-41.01-19.89-103.12-22.18-62.11-21.99-109.13-19.03-155.96,2.96-46.83,15.81-99.67,20.74-119.88,4.93-20.21,5.58-32.48-3.41-51.99-9.64-20.93-26.78-86.39-32.95-145.45-6.26-59.92-9.39-104.46-11.36-144.88-1.97-40.42-3.07-64.24-13.92-118.46-10.85-54.23-17.56-184.29-17.56-184.29,0,0-3.32,1.91-14.14,1.94V102.69Z"/>
    <g>
      <path id="chest-2" data-name="chest" class="cls-2" d="m788.37,614.11s42.44-9.96,62.58-13.67,40.73-12.19,61.93,0,45,33.48,56.13,50.7,22.19,38.49,33.32,56.51c4.88,7.9,10.57,17.29,15.41,25.35s.68,18.18-8.22,20.8c-3.95,1.16-8.38,2.84-13.14,5.25-18.81,9.54-17.75,19.61-30.47,33.12s-30.49,21.38-55.93,24.82c-25.44,3.44-43.01-9.37-70.31-11.23-11.92-.81-29.04-.67-44.53-.27-20.4.54-37.21-15.88-37.18-36.28.06-38.87.1-95.57-.07-109.01-.26-20.93,6.82-37.85,30.47-46.11Z"/>
      <path id="shoulders-2" data-name="shoulders" class="cls-2" d="m914.65,580.25s17.89-12.12,56.63-13.12,66.21,15.23,85.41,36.75c19.2,21.52,36.75,47.01,42.7,85.41,5.96,38.4,5,46.6,3.34,65.8-1.66,19.2-6.08,41.66-6.08,41.66,0,0-31.7-26.81-51.57-56.28-19.86-29.46-51.42-95.47-80.5-122.38s-49.93-37.84-49.93-37.84Z"/>
      <path id="adductors-2" data-name="adductors" class="cls-2" d="m847.28,1412.21s-8.53,35.29-11.42,73.29c-2.89,38-3.95,55.75-3.24,83.1.31,11.89.58,22.97.79,31.71.26,10.71-2.3,21.26-7.23,30.76-2.83,5.46-5.93,12.74-8.37,21.82-6.01,22.33-11.74,65.86-11.74,65.86,0,0-5.24-9.86-7.24-20.74s-12.03-65-13.46-117.4c-.55-20.03-.89-36.09-1.09-48.28-.32-18.52,3.34-30.52,13.96-45.69,5.22-7.46,10.75-15.59,14.99-22.45,11.17-18.04,34.05-51.98,34.05-51.98Z"/>
      <path id="biceps-2" data-name="biceps" class="cls-2" d="m1035.34,772.78c16.26,1.4,32.77,27.5,43.97,34.85,11.2,7.35,29.04,19.24,43.74,50.39,14.7,31.14,22.74,56.33,26.59,90.27,3.85,33.94,3.08,56.82-4.62,65.57-7.7,8.75-26.94,21.69-71.73-27.99-44.79-49.69-49.34-96.92-48.99-112.32.35-15.4-1.33-39.54-10.81-61.93s-4.94-33.59,3.81-37.09,18.03-1.75,18.03-1.75Z"/>
      <path id="lats-2" data-name="lats" class="cls-2" d="m990.36,792.72s-1.4,16.1,6.3,33.94c7.7,17.84,12.6,32.54,4.9,60.18-7.7,27.64-20.99,58.08-30.79,73.13s-24.14,32.54-24.14,32.54c0,0,1.05-18.89,4.2-29.04s9.45-21.34-4.2-41.64-11.2-39.19-10.5-49.69c.34-5.14.85-13.81,1.29-21.32.49-8.56,5.45-16.2,13.01-20.25,4.8-2.57,10.23-5.81,14.75-9.37,10.85-8.54,25.19-28.49,25.19-28.49Z"/>
      <path id="abductors-2" data-name="abductors" class="cls-2" d="m905.64,1317.16s13.02-6.98,21.38-16.27,18.59-25.33,18.59-25.33c0,0-1.63,20.69,4.18,59.96,5.81,39.28,15.11,65.54,22.78,89.71s18.59,51.19,23.24,72.78,2.56,30.88,2.56,30.88c0,0-5.35-1.86-16.97-25.8s-20.69-61.13-33.47-97.85c-12.78-36.72-18.13-50.2-28.59-67.17s-13.71-20.91-13.71-20.91Z"/>
      <g>
        <path class="cls-2" d="m890.77,1332.03s16.73,17.2,27.19,41.6,23.01,65.54,28.59,96.92,17.97,112.68,18.92,166.62c.95,53.93-2.86,120.87-16.18,162.43-13.32,41.56-25.7,43.46-34.26,43.15-8.57-.32-38.39-22.84-47.27-98.03s-13.32-113.89-13.64-159.89,1.9-118.65,7.3-156.08c5.39-37.44,14.59-69.79,19.03-79.95,4.44-10.15,10.32-16.76,10.32-16.76Z"/>
        <path class="cls-2" d="m840.15,1641.52s-4.74,91.81,23.28,164.22,58.62,81.03,54.74,128.02c-3.88,46.98-32.76,64.66-53.45,65.52-20.69.86-39.22-25.43-46.12-71.12s-10.48-126.29-3.95-171.55c6.54-45.26,25.5-115.09,25.5-115.09Z"/>
        <path class="cls-2" d="m976.36,1524.28s19.83,14.66,26.29,43.53c6.47,28.88,16.38,93.1,12.5,156.47-3.88,63.36-12.5,143.54-31.9,179.74-19.4,36.21-38.79,53.02-41.81-2.59s23.28-77.59,31.9-121.55,15.95-87.5,10.78-150.43c-5.17-62.93-7.76-105.17-7.76-105.17Z"/>
      </g>
      <g>
        <path class="cls-2" d="m858.12,2171.01s-20.22,40.01-21.08,138.53,25.81,141.98,25.81,141.98c0,0,10.33-44.31,7.31-135.95s-12.05-144.56-12.05-144.56Z"/>
        <path class="cls-2" d="m994.93,2134.01s30.55,65.18,18.07,205.22c-12.48,140.04-40.44,174.03-55.07,220.92s-26.24,90.35-31.41,104.55-10.76,29.69-12.05-12.05c-1.29-41.73,4.3-184.14,9.47-260.72,5.16-76.58,15.06-123.91,23.66-142.41,8.6-18.5,22.37-27.1,33.13-60.23,10.76-33.13,14.2-55.28,14.2-55.28Z"/>
      </g>
      <g>
        <path class="cls-2" d="m1176.34,1005.06s26.94,16.1,38.84,36.74c11.9,20.64,24.49,37.44,27.29,61.93,2.8,24.49,9.61,57.08,25.35,94.52,2.93,6.96,5.97,13.72,9,20.13,5.61,11.89-9.23,22.85-18.99,14.04-13.93-12.58-28.79-27.88-40.91-44.78-32.89-45.84-45.32-66.01-52.31-111.15-7-45.14-2.8-54.93,2.45-62.28,5.25-7.35,9.29-9.14,9.29-9.14Z"/>
        <path class="cls-2" d="m1079.3,1018.11s12.02,20.13,31.24,22.53c19.23,2.4,36.05-3.91,36.05-3.91,0,0-2.7,41.46,10.21,76.61,12.92,35.15,23.43,61.29,56.78,97.34,33.35,36.05,98.24,89.22,98.24,89.22,0,0-7.81,12.62-21.93,13.52-14.12.9-25.54-2.4-25.54-2.4,0,0-25.54-46.87-55.28-81.41-29.74-34.55-81.71-71.8-101.24-106.65-19.53-34.85-23.82-46.56-25.88-65.19-2.06-18.63-2.66-39.66-2.66-39.66Z"/>
      </g>
      <g>
        <path class="cls-2" d="m865.27,1087.17s-1.63-71.42,17.11-98.84c18.74-27.43,27.97-31.77,36.93-35.57,2.24-.95,4.67-2.15,7.05-3.42,4.55-2.43,9.71,2.01,8.04,6.9-3.47,10.17-7.42,24.17-8.57,37.8-.9,10.73-1.38,21.27-1.64,29.92-.38,12.95-7.25,24.84-18.3,31.62-5.27,3.23-10.59,6.5-14.27,8.79-10.05,6.25-26.34,22.81-26.34,22.81Z"/>
        <path class="cls-2" d="m931.26,1062.46s8.96,27.15,8.96,37.47,0,15.48-17.11,30.68c-17.11,15.21-49.96,49.69-49.96,49.69,0,0-3.68-20.91-4.56-44.53s7.27-36.12,26.01-48.61c18.74-12.49,36.66-24.71,36.66-24.71Z"/>
        <path class="cls-2" d="m883.74,1204.74c19.17-28.64,62.46-71.78,62.46-71.78,0,0,13.31,21,9.78,54.95-3.53,33.94-18.74,63.54-38.02,86.62-19.28,23.08-22,24.71-30.14,30.68s-23.08,11.95-23.08,11.95c0,0,1.78-60.32,4.73-75.86,2.95-15.54,6.5-24.94,14.28-36.56Z"/>
      </g>
      <g>
        <path class="cls-2" d="m757.89,863.77c0,9.13,6.67,16.95,15.7,18.26s21.51,4.15,33.15,9.97c23.29,11.65,50.68,29.12,61.25,35.37,10.57,6.25,24.59,15.1,36.88-7.55s22-48.53,13.16-67.29c-8.84-18.76-34.94-21.14-77.43-27.39-24.92-3.67-49.06-3.92-64.77-3.51-9.99.26-17.95,8.46-17.95,18.46v23.68Z"/>
        <path class="cls-2" d="m757.89,972.42c0,10.32,8.46,18.68,18.78,18.46,7.32-.16,15.89.07,23.99,1.29,19.98,3.01,22.77,4.3,31.36,7.52,8.59,3.22,18.47,6.87,24.7-7.09,6.23-13.96,13.32-29.21,11.6-37.8s-15.68-21.05-39.09-33.51c-23.41-12.46-32-16.54-45.97-20.84-.64-.2-1.28-.39-1.92-.57-11.76-3.39-23.46,5.54-23.46,17.78v54.76Z"/>
        <path class="cls-2" d="m757.89,1023.53c0-10.18,8.24-18.48,18.43-18.46,14.29.02,33.51,1.28,44.76,7.09,19.55,10.1,27.06,29.21,26.85,46.61s-.21,38.88-11.81,54.34c-11.6,15.47-12.89,19.55-34.37,19.76-8.87.09-17.89.1-25.42.09-10.18-.02-18.43-8.28-18.43-18.46v-90.97Z"/>
        <path class="cls-2" d="m757.89,1165.03c0-10.08,8.08-18.29,18.15-18.46,10.43-.17,22.63-.19,28.7.47,11.81,1.29,24.7,1.29,28.35,30.93s4.73,79.15-3.44,117.6-23.26,80.33-32.79,100.31c-9.53,19.98-20.05,35.44-26.49,40.81-.06.05-.13.11-.19.16-4.91,4.03-12.3.45-12.3-5.9v-265.92Z"/>
      </g>
      <path id="traps-2" data-name="traps" class="cls-2" d="m838.29,488.98c-5.39-3.68-12.78-.47-13.73,5.99s-1.45,28.15-2.72,34.61c-2.66,13.53-6.43,24.12-9.88,31.54s-6.89,19.08,7.68,22.79,49.29-6.89,62.8-11.39,38.11-11.93,48.44-14.32c.1-.02.21-.05.31-.07,8.23-1.89,9.41-13.12,1.75-16.65-13.81-6.36-30.95-14.49-44.72-21.7-17.49-9.16-37.49-22.3-49.93-30.8Z"/>
    </g>
  </g>
</svg>