<?xml version="1.0" encoding="UTF-8"?>
<svg id="body_back" xmlns="http://www.w3.org/2000/svg" viewBox="0 0 1500 3000">
  <defs>
    <style>
      .cls-1 {
        fill: #454758;
      }

      .cls-1, .cls-2 {
        stroke-width: 0px;
      }

      .cls-2 {
        fill: #8c77b6;
      }
    </style>
  </defs>
  <g>
    <path id="silhouette" class="cls-1" d="m750,102.69s-44.01-2.12-84.35,30.15c-40.34,32.27-45.86,53.5-45.86,78.98s3.82,28.87-4.67,45.86-7.22,39.91-2.97,51.38,29.3,39.91,29.3,39.91c0,0-.42,6.37,7.64,25.48s24.2,55.62,9.77,84.92-90.44,60.3-137.15,79.83c-46.71,19.53-87.47,31.85-116.34,78.98-28.87,47.13-29.3,107-27.18,139.7,2.12,32.7,6.37,56.9,6.37,56.9,0,0-19.96,25.05-27.6,40.76-7.64,15.71-14.86,35.24-20.38,57.32-5.52,22.08-7.22,56.47-7.22,56.47,0,0-25.9,18.26-39.06,34.39-13.16,16.14-33.97,38.64-45.43,69.21-11.46,30.57-19.53,85.77-33.12,123.14s-18.26,43.74-25.48,57.75c-7.22,14.01-19.53,42.04-19.53,42.04,0,0-22.93,9.77-42.89,25.05-19.96,15.29-30.57,23.78-35.24,30.57-4.67,6.79-4.85,17.5,1.14,21.43,5.99,3.93,13.1-.19,19.65-4.3,6.55-4.12,14.6-8.98,14.6-8.98,0,0-25.45,49.41-26.76,66.07s-5.62,33.32,26.39,46.42c32.01,13.1,79.17,9.73,90.4-16.47,11.23-26.2,26.02-68.13,27.33-92.65,1.31-24.52-.75-28.26-.75-28.26,0,0,27.89-59.14,56.9-90.78,29.01-31.63,46.59-50.06,72.35-72.55,25.76-22.49,55.6-65.82,62.55-105.89,6.95-40.06,3.68-59.28,3.68-59.28,0,0,10.2-15.4,23.5-29.4,13.3-14,21.7-25.73,25.73-36.75,4.03-11.03,7.53-20.48,7.53-20.48,0,0,12.25,30.63,28,54.43s33.37,45.7,34.82,61.98-1.74,50.29-14.54,85.76c-12.79,35.47-12.5,74.42-6.98,96.52,5.52,22.09,7.27,39.25,6.69,64.54s-2.62,55.53-12.5,88.09c-9.88,32.56-29.65,96.81-42.15,148.27s-17.73,104.37-17.44,150.3,3.2,111.64,10.18,155.83c6.98,44.19,19.48,70.35,28.2,121.52s-7.27,103.21-14.83,141.29c-7.56,38.08-27.86,140.57-22.44,211.06,5.42,70.49,22.68,175,39.44,229.23,16.76,54.23,24.65,104.02,30.07,158.74s-.99,68.03-14.3,79.86c-13.31,11.83-54.23,30.56-77.4,42.89-23.17,12.32-40.42,23.17-40.42,33.52s15.28,22.18,54.72,28.1c39.44,5.92,58.17,2.96,92.68,13.8s69.51,12.82,84.3,5.42c14.79-7.39,21.2-27.11,18.73-63.1s-11.34-90.71-11.83-168.6,2.46-103.52,2.96-114.86-4.93-18.73,17.25-80.85c22.18-62.11,22.68-125.71,19.72-172.54-2.96-46.83-17.25-105.5-22.18-125.71-4.93-20.21-8.87-28.1,2.46-46.34,11.34-18.24,32.04-89.23,35.49-149.37,3.45-60.14,8.38-105.74,10.35-146.17s1.48-59.16,12.32-113.38c10.85-54.23,11.34-177.47,11.34-177.47l14.45-.49V102.69Z"/>
    <g>
      <path id="traps" class="cls-2" d="m553.57,550.44c-12.91,6.14-13.78,24.13-1.54,31.53,5.94,3.59,13.11,7.21,21.63,10.41,31.84,11.94,50.42,31.62,54.18,61.03s8.18,62.14,7.96,104.59c0,0-.59,56.65,17.65,105.47,18.23,48.82,31.21,72.93,60.87,105.68,25.54,28.21,26.75,22.85,26.59,20.82-.04-.57-.09-1.14-.09-1.71v-341.96s1.55-47.9-14.21-63.96c-15.76-16.07-23.48-21.94-24.1-26.88s4.02-7.73,19.47-19.47,18.62-28.43,18.89-48.21,0-93.41,0-93.41c0,0,.32-7.06-3.67-9.36s-7.21-1.23-10.28,7.52-8.06,31.62-25.1,54.95-25.16,34.92-54.04,53.87-50.85,29.79-70.4,38.21c-7.28,3.13-15.87,7.12-23.78,10.88Z"/>
      <path id="obliques" class="cls-2" d="m571.76,1067.58s-3.73,32.93-15.53,58.4c-11.8,25.47-9.94,42.87-8.39,57.16,1.55,14.29,11.28,31.06,11.39,47.53s-.39,26.19-.39,26.19c0,0,8.01-10.29,15.78-15.57,7.77-5.28,18.81-8.35,19.74-33.51s-.86-52.28-5.83-78.37-16.77-61.81-16.77-61.81Z"/>
      <path id="lowerBack" class="cls-2" d="m740.97,1040.92s-35.16,41.3-61.87,56.83c-6.01,3.49-12.95,7.03-20.09,10.42-28.47,13.51-46.41,42.38-45.76,73.88,0,.29.01.58.02.87,0,.48.01.96.01,1.45.11,25.84,18.09,47.98,43.22,54.02,6.78,1.63,13.97,3.87,21.36,6.91,1.1.45,2.2.93,3.28,1.42,27.41,12.56,58.65-7.28,58.83-37.43l1.01-168.38Z"/>
      <path id="shoulders" class="cls-2" d="m498.9,576.98c-.4.03-.81.04-1.21.05-22.35.4-55.07,20.45-69.52,47.51-14.6,27.33-29.5,60.25-30.12,102.48-.16,11.04.67,21,1.99,29.69,2.69,17.66,23.82,25.39,37.27,13.64,12.24-10.69,27.71-22.57,43.97-30.9,36.96-18.94,60.87-16.46,91.93-36.34s33.54-33.85,34.47-48.14-21.12-40.37-36.02-44.41c-14.91-4.04-33.85-16.77-44.1-26.09-9.22-8.39-25.49-7.71-28.65-7.5Z"/>
      <path id="glutes" class="cls-2" d="m684.79,1270.73c-34.54-21.26-71.3-19.04-93-6.64-21.7,12.4-38.08,34.54-37.2,98.31s1.26,115.72,20.3,144.74c19.04,29.02,41.24,34.75,70.03,35.21,31.17.51,53.41-10.5,72.01-23.34,18.6-12.84,23.87-26.42,24.04-48.12s-.17-110.27,0-130.19-10.57-31.44-23.42-45.61c-12.84-14.17-32.77-24.36-32.77-24.36Z"/>
      <g>
        <path class="cls-2" d="m560.33,1530.83c1.47-2.61,1.6-5.77.33-8.48-1.13-2.42-6.43-8.7-9.95-16.61-3.52-7.91-6.62-8.93-9.72-39.31-3.1-30.39.65-62.6-6.6-54.22-10.45,12.09-29.86,100.03-32.77,116.68-5.72,32.67-15.8,91.91-18.14,124.25-2.39,32.98,0,91.17,0,91.17,0,0,9.38-56.64,33.23-118.7,19.04-49.53,37.11-83.21,43.63-94.78Z"/>
        <path class="cls-2" d="m595.66,1563.41c.99-3.76-.48-7.73-3.66-9.97-1.54-1.09-3.27-2.38-4.99-3.83-.76-.64-1.53-1.31-2.3-2.01-4.57-4.12-11.8-2.77-14.56,2.73-10.93,21.8-34.49,70.37-44.12,102.54-12.74,42.55-29.27,89.71-30.08,132.53-.81,42.82,9.76,75.88,19.78,118.43,10.03,42.55,8.4,47.43,8.67,74.26s-5.96,60.98-5.96,60.98c0,0,29.27-25.48,43.63-72.9,14.36-47.43,6.73-90.08,4.56-135.88-2.17-45.8,3.08-118.14,7.14-158.52,4.07-40.38,12.15-67.68,16.21-85.3,2.26-9.81,4.3-17.85,5.67-23.06Z"/>
        <path class="cls-2" d="m650.16,1576.27c.1-5.03-3.79-9.22-8.81-9.49-2.93-.16-6.4-.43-10.16-.9-3.16-.4-5.69-.82-7.69-1.22-4.42-.89-8.88,1.45-10.52,5.65-4.01,10.27-10.34,33.97-15.59,87.33-8.4,85.37-5.33,163.78-3.56,221.18,1.77,57.39-5.01,99.13,29.42,155.2,34.44,56.07,27.18,79.91,27.18,79.91,0,0,34.19-78.14,38.61-173.06,3.8-81.62,8.57-129.95,9.84-141.88.2-1.88-.18-3.78-1.09-5.44-5.65-10.37-26.86-51.52-35.24-99.91-9.71-56.07-11.92-75.49-12.36-92.71-.24-9.17-.15-18.2-.02-24.64Z"/>
        <path class="cls-2" d="m721.92,1576.55c.24-14.37-13.99-24.41-27.51-19.52-.16.06-.32.11-.48.17-8.56,3.04-16.21,4.8-21.5,5.78-4.41.82-7.61,4.66-7.61,9.15.02,14.17.91,46.02,7.37,86.72,8.83,55.63,28.6,107.64,28.6,107.64,0,0,13.89-75.08,17.87-118.79,2.04-22.47,2.91-49.85,3.26-71.15Z"/>
      </g>
      <g>
        <path class="cls-2" d="m600.81,2031.29c-5.25-7.49-16.94-4.4-17.76,4.71-1.62,17.88-2.15,56.47,3.39,139.69,10.11,151.72,10.24,160.06,10.97,194.88s-2.9,56.58,14.87,87.78c17.77,31.19,20.2,36.56,28.54,5.01,8.34-31.56,33.37-108.81,21.04-185.35-12.33-76.53-22.52-160.98-33.51-188.9-7.29-18.51-17.62-43.66-27.54-57.8Z"/>
        <path class="cls-2" d="m562.53,2057.42c.31-16.7-21.08-23.89-30.91-10.38-7.83,10.76-15.83,25.17-21.63,43.87-15.96,51.51-21.04,120.42-21.04,166.12s3.94,113.99,14.82,154.25c10.88,40.26,16.38,53.59,36.69,58.3,20.31,4.72,39.39-18.82,35.76-85.2s-15.79-160.29-16.15-225.22c-.2-36.25,1.96-74.59,2.46-101.75Z"/>
      </g>
      <g>
        <path class="cls-2" d="m419.09,1017.85s-46.03,26.58-68.25,69.35c-22.23,42.77-26.6,46.47-35.36,72.41-8.76,25.93-7.75,43.11-7.75,43.11,0,0,38.39-31.99,68.03-66.34,29.64-34.35,32.95-49.2,38.62-72.38,5.06-20.72,4.71-46.14,4.71-46.14Z"/>
        <path class="cls-2" d="m317.55,1003.71s-23.6,10.84-52.17,75.25c-14.78,33.33-9.85,43.6-33.76,103.54-23.91,59.95-15.49,46.14-27.62,71.73-4.69,9.91-8.07,16.84-10.45,21.61-3.46,6.93-2.42,15.31,2.78,21.06,2.18,2.41,4.73,4.69,7.56,6.22,3.25,1.77,7.49,3.08,11.6,4.04,8.18,1.91,16.63-1.76,20.81-9.04,7.01-12.24,18.63-32.27,29.27-49.33,16.64-26.7,27.04-39.87,27.39-62.41.35-22.54,19.07-64.49,28.43-94.66,9.36-30.16-3.84-88.02-3.84-88.02Z"/>
      </g>
      <g>
        <path class="cls-2" d="m480.13,797.31c.56-15.61-20.21-21.43-27.8-7.78-4.23,7.6-8.71,16.94-13.37,28.43-26.65,65.73-22.32,101.7-21.38,115.67.94,13.97-.1,24.58-12.26,45.29-12.16,20.7-24.58,46.58,0,26.4,24.58-20.18,54.6-57.45,67.8-76.08,13.2-18.63,16.56-23.03,11.9-63.4s-5.69-43.47-4.92-67.8c0-.24.02-.49.02-.73Z"/>
        <path class="cls-2" d="m436.37,791.56s-48.65,35.71-63.92,65.21c-15.27,29.5-22.51,48.65-25.1,77.12-2.59,28.47-6.47,35.75-8.28,53.6-1.81,17.86-1.81,34.9-1.81,34.9,0,0,29.24-13.97,38.04-48.91s9.8-37.71,15.86-43.73c.56-.56,1.16-1.11,1.76-1.63,5.48-4.77,8.91-11.45,9.34-18.7.73-12.35,2.98-32.8,9.78-55.74,14.13-47.71,24.32-62.11,24.32-62.11Z"/>
      </g>
      <g>
        <path class="cls-2" d="m709.56,989.33c18.18,17.01,18.26,45.96-.02,62.86-7.91,7.31-17.25,14.77-27.95,21.41-38.51,23.91-58.07,32.92-65.22,34.47-7.14,1.55-11.37,1.2-11.37,1.2,0,0-34.44-88.08-47.37-106.15-13.81-19.32-22.94-32.63-39.4-76.42-16.46-43.79-18.94-72.67-22.36-104.97-3.42-32.3,4.04-55.9,4.04-55.9,0,0,18.94,23.91,53.11,32.3,8.01,1.97,15.82,2.69,23.08,2.64,23.54-.17,44.02,15.84,49.63,38.7,4.28,17.43,10.68,37.43,20.14,55.87,23.91,46.58,34.16,66.15,61.49,91.93.75.7,1.48,1.39,2.2,2.06Z"/>
        <path class="cls-2" d="m585.56,712.95c12-8.84,29-1.02,29.94,13.86.29,4.63.5,9.17.56,13.26,0,.2,0,.4,0,.6.38,25.43-20.74,46.18-46.15,44.84-5.68-.3-11.67-1.09-17.84-2.58-34.78-8.39-51.86-32.92-43.79-37.89s42.55-12.42,62.42-22.67c4.97-2.56,10.03-5.88,14.84-9.42Z"/>
      </g>
    </g>
  </g>
  <g>
    <path id="silhouette-2" data-name="silhouette" class="cls-1" d="m750,102.69s44.01-2.12,84.35,30.15c40.34,32.27,45.86,53.5,45.86,78.98s-3.82,28.87,4.67,45.86,7.22,39.91,2.97,51.38-29.3,39.91-29.3,39.91c0,0,.42,6.37-7.64,25.48s-24.2,55.62-9.77,84.92,90.44,60.3,137.15,79.83c46.71,19.53,87.47,31.85,116.34,78.98,28.87,47.13,29.3,107,27.18,139.7-2.12,32.7-6.37,56.9-6.37,56.9,0,0,19.96,25.05,27.6,40.76,7.64,15.71,14.86,35.24,20.38,57.32,5.52,22.08,7.22,56.47,7.22,56.47,0,0,25.9,18.26,39.06,34.39,13.16,16.14,33.97,38.64,45.43,69.21,11.46,30.57,19.53,85.77,33.12,123.14s18.26,43.74,25.48,57.75c7.22,14.01,19.53,42.04,19.53,42.04,0,0,22.93,9.77,42.89,25.05,19.96,15.29,30.57,23.78,35.24,30.57,4.67,6.79,4.85,17.5-1.14,21.43-5.99,3.93-13.1-.19-19.65-4.3-6.55-4.12-14.6-8.98-14.6-8.98,0,0,25.45,49.41,26.76,66.07s5.62,33.32-26.39,46.42c-32.01,13.1-79.17,9.73-90.4-16.47-11.23-26.2-26.02-68.13-27.33-92.65-1.31-24.52.75-28.26.75-28.26,0,0-27.89-59.14-56.9-90.78-29.01-31.63-46.59-50.06-72.35-72.55-25.76-22.49-55.6-65.82-62.55-105.89-6.95-40.06-3.68-59.28-3.68-59.28,0,0-10.2-15.4-23.5-29.4-13.3-14-21.7-25.73-25.73-36.75-4.03-11.03-7.53-20.48-7.53-20.48,0,0-12.25,30.63-28,54.43s-33.37,45.7-34.82,61.98,1.74,50.29,14.54,85.76c12.79,35.47,12.5,74.42,6.98,96.52-5.52,22.09-7.27,39.25-6.69,64.54s2.62,55.53,12.5,88.09c9.88,32.56,29.65,96.81,42.15,148.27s17.73,104.37,17.44,150.3-3.2,111.64-10.18,155.83c-6.98,44.19-19.48,70.35-28.2,121.52s7.27,103.21,14.83,141.29c7.56,38.08,27.86,140.57,22.44,211.06-5.42,70.49-22.68,175-39.44,229.23-16.76,54.23-24.65,104.02-30.07,158.74s.99,68.03,14.3,79.86c13.31,11.83,54.23,30.56,77.4,42.89,23.17,12.32,40.42,23.17,40.42,33.52s-15.28,22.18-54.72,28.1c-39.44,5.92-58.17,2.96-92.68,13.8s-69.51,12.82-84.3,5.42c-14.79-7.39-21.2-27.11-18.73-63.1s11.34-90.71,11.83-168.6-2.46-103.52-2.96-114.86,4.93-18.73-17.25-80.85c-22.18-62.11-22.68-125.71-19.72-172.54,2.96-46.83,17.25-105.5,22.18-125.71,4.93-20.21,8.87-28.1-2.46-46.34-11.34-18.24-32.04-89.23-35.49-149.37-3.45-60.14-8.38-105.74-10.35-146.17s-1.48-59.16-12.32-113.38c-10.85-54.23-11.34-177.47-11.34-177.47l-14.45-.49V102.69Z"/>
    <g>
      <path id="traps-2" data-name="traps" class="cls-2" d="m946.43,550.44c12.91,6.14,13.78,24.13,1.54,31.53-5.94,3.59-13.11,7.21-21.63,10.41-31.84,11.94-50.42,31.62-54.18,61.03s-8.18,62.14-7.96,104.59c0,0,.59,56.65-17.65,105.47-18.23,48.82-31.21,72.93-60.87,105.68-25.54,28.21-26.75,22.85-26.59,20.82.04-.57.09-1.14.09-1.71v-341.96s-1.55-47.9,14.21-63.96c15.76-16.07,23.48-21.94,24.1-26.88s-4.02-7.73-19.47-19.47-18.62-28.43-18.89-48.21,0-93.41,0-93.41c0,0-.32-7.06,3.67-9.36s7.21-1.23,10.28,7.52,8.06,31.62,25.1,54.95,25.16,34.92,54.04,53.87,50.85,29.79,70.4,38.21c7.28,3.13,15.87,7.12,23.78,10.88Z"/>
      <path id="obliques-2" data-name="obliques" class="cls-2" d="m928.24,1067.58s3.73,32.93,15.53,58.4c11.8,25.47,9.94,42.87,8.39,57.16-1.55,14.29-11.28,31.06-11.39,47.53s.39,26.19.39,26.19c0,0-8.01-10.29-15.78-15.57-7.77-5.28-18.81-8.35-19.74-33.51s.86-52.28,5.83-78.37,16.77-61.81,16.77-61.81Z"/>
      <path id="lowerBack-2" data-name="lowerBack" class="cls-2" d="m759.03,1040.92s35.16,41.3,61.87,56.83c6.01,3.49,12.95,7.03,20.09,10.42,28.47,13.51,46.41,42.38,45.76,73.88,0,.29-.01.58-.02.87,0,.48-.01.96-.01,1.45-.11,25.84-18.09,47.98-43.22,54.02-6.78,1.63-13.97,3.87-21.36,6.91-1.1.45-2.2.93-3.28,1.42-27.41,12.56-58.65-7.28-58.83-37.43l-1.01-168.38Z"/>
      <path id="shoulders-2" data-name="shoulders" class="cls-2" d="m1001.1,576.98c.4.03.81.04,1.21.05,22.35.4,55.07,20.45,69.52,47.51,14.6,27.33,29.5,60.25,30.12,102.48.16,11.04-.67,21-1.99,29.69-2.69,17.66-23.82,25.39-37.27,13.64-12.24-10.69-27.71-22.57-43.97-30.9-36.96-18.94-60.87-16.46-91.93-36.34s-33.54-33.85-34.47-48.14,21.12-40.37,36.02-44.41c14.91-4.04,33.85-16.77,44.1-26.09,9.22-8.39,25.49-7.71,28.65-7.5Z"/>
      <path id="glutes-2" data-name="glutes" class="cls-2" d="m815.21,1270.73c34.54-21.26,71.3-19.04,93-6.64,21.7,12.4,38.08,34.54,37.2,98.31s-1.26,115.72-20.3,144.74c-19.04,29.02-41.24,34.75-70.03,35.21-31.17.51-53.41-10.5-72.01-23.34-18.6-12.84-23.87-26.42-24.04-48.12s.17-110.27,0-130.19,10.57-31.44,23.42-45.61c12.84-14.17,32.77-24.36,32.77-24.36Z"/>
      <g>
        <path class="cls-2" d="m939.67,1530.83c-1.47-2.61-1.6-5.77-.33-8.48,1.13-2.42,6.43-8.7,9.95-16.61,3.52-7.91,6.62-8.93,9.72-39.31,3.1-30.39-.65-62.6,6.6-54.22,10.45,12.09,29.86,100.03,32.77,116.68,5.72,32.67,15.8,91.91,18.14,124.25,2.39,32.98,0,91.17,0,91.17,0,0-9.38-56.64-33.23-118.7-19.04-49.53-37.11-83.21-43.63-94.78Z"/>
        <path class="cls-2" d="m904.34,1563.41c-.99-3.76.48-7.73,3.66-9.97,1.54-1.09,3.27-2.38,4.99-3.83.76-.64,1.53-1.31,2.3-2.01,4.57-4.12,11.8-2.77,14.56,2.73,10.93,21.8,34.49,70.37,44.12,102.54,12.74,42.55,29.27,89.71,30.08,132.53.81,42.82-9.76,75.88-19.78,118.43-10.03,42.55-8.4,47.43-8.67,74.26s5.96,60.98,5.96,60.98c0,0-29.27-25.48-43.63-72.9-14.36-47.43-6.73-90.08-4.56-135.88,2.17-45.8-3.08-118.14-7.14-158.52-4.07-40.38-12.15-67.68-16.21-85.3-2.26-9.81-4.3-17.85-5.67-23.06Z"/>
        <path class="cls-2" d="m849.84,1576.27c-.1-5.03,3.79-9.22,8.81-9.49,2.93-.16,6.4-.43,10.16-.9,3.16-.4,5.69-.82,7.69-1.22,4.42-.89,8.88,1.45,10.52,5.65,4.01,10.27,10.34,33.97,15.59,87.33,8.4,85.37,5.33,163.78,3.56,221.18-1.77,57.39,5.01,99.13-29.42,155.2-34.44,56.07-27.18,79.91-27.18,79.91,0,0-34.19-78.14-38.61-173.06-3.8-81.62-8.57-129.95-9.84-141.88-.2-1.88.18-3.78,1.09-5.44,5.65-10.37,26.86-51.52,35.24-99.91,9.71-56.07,11.92-75.49,12.36-92.71.24-9.17.15-18.2.02-24.64Z"/>
        <path class="cls-2" d="m778.08,1576.55c-.24-14.37,13.99-24.41,27.51-19.52.16.06.32.11.48.17,8.56,3.04,16.21,4.8,21.5,5.78,4.41.82,7.61,4.66,7.61,9.15-.02,14.17-.91,46.02-7.37,86.72-8.83,55.63-28.6,107.64-28.6,107.64,0,0-13.89-75.08-17.87-118.79-2.04-22.47-2.91-49.85-3.26-71.15Z"/>
      </g>
      <g>
        <path class="cls-2" d="m899.19,2031.29c5.25-7.49,16.94-4.4,17.76,4.71,1.62,17.88,2.15,56.47-3.39,139.69-10.11,151.72-10.24,160.06-10.97,194.88s2.9,56.58-14.87,87.78c-17.77,31.19-20.2,36.56-28.54,5.01-8.34-31.56-33.37-108.81-21.04-185.35,12.33-76.53,22.52-160.98,33.51-188.9,7.29-18.51,17.62-43.66,27.54-57.8Z"/>
        <path class="cls-2" d="m937.47,2057.42c-.31-16.7,21.08-23.89,30.91-10.38,7.83,10.76,15.83,25.17,21.63,43.87,15.96,51.51,21.04,120.42,21.04,166.12s-3.94,113.99-14.82,154.25c-10.88,40.26-16.38,53.59-36.69,58.3-20.31,4.72-39.39-18.82-35.76-85.2s15.79-160.29,16.15-225.22c.2-36.25-1.96-74.59-2.46-101.75Z"/>
      </g>
      <g>
        <path class="cls-2" d="m1080.91,1017.85s46.03,26.58,68.25,69.35c22.23,42.77,26.6,46.47,35.36,72.41,8.76,25.93,7.75,43.11,7.75,43.11,0,0-38.39-31.99-68.03-66.34-29.64-34.35-32.95-49.2-38.62-72.38-5.06-20.72-4.71-46.14-4.71-46.14Z"/>
        <path class="cls-2" d="m1182.45,1003.71s23.6,10.84,52.17,75.25c14.78,33.33,9.85,43.6,33.76,103.54,23.91,59.95,15.49,46.14,27.62,71.73,4.69,9.91,8.07,16.84,10.45,21.61,3.46,6.93,2.42,15.31-2.78,21.06-2.18,2.41-4.73,4.69-7.56,6.22-3.25,1.77-7.49,3.08-11.6,4.04-8.18,1.91-16.63-1.76-20.81-9.04-7.01-12.24-18.63-32.27-29.27-49.33-16.64-26.7-27.04-39.87-27.39-62.41-.35-22.54-19.07-64.49-28.43-94.66-9.36-30.16,3.84-88.02,3.84-88.02Z"/>
      </g>
      <g>
        <path class="cls-2" d="m1019.87,797.31c-.56-15.61,20.21-21.43,27.8-7.78,4.23,7.6,8.71,16.94,13.37,28.43,26.65,65.73,22.32,101.7,21.38,115.67-.94,13.97.1,24.58,12.26,45.29,12.16,20.7,24.58,46.58,0,26.4-24.58-20.18-54.6-57.45-67.8-76.08-13.2-18.63-16.56-23.03-11.9-63.4s5.69-43.47,4.92-67.8c0-.24-.02-.49-.02-.73Z"/>
        <path class="cls-2" d="m1063.63,791.56s48.65,35.71,63.92,65.21c15.27,29.5,22.51,48.65,25.1,77.12,2.59,28.47,6.47,35.75,8.28,53.6,1.81,17.86,1.81,34.9,1.81,34.9,0,0-29.24-13.97-38.04-48.91s-9.8-37.71-15.86-43.73c-.56-.56-1.16-1.11-1.76-1.63-5.48-4.77-8.91-11.45-9.34-18.7-.73-12.35-2.98-32.8-9.78-55.74-14.13-47.71-24.32-62.11-24.32-62.11Z"/>
      </g>
      <g>
        <path class="cls-2" d="m790.44,989.33c-18.18,17.01-18.26,45.96.02,62.86,7.91,7.31,17.25,14.77,27.95,21.41,38.51,23.91,58.07,32.92,65.22,34.47,7.14,1.55,11.37,1.2,11.37,1.2,0,0,34.44-88.08,47.37-106.15,13.81-19.32,22.94-32.63,39.4-76.42,16.46-43.79,18.94-72.67,22.36-104.97,3.42-32.3-4.04-55.9-4.04-55.9,0,0-18.94,23.91-53.11,32.3-8.01,1.97-15.82,2.69-23.08,2.64-23.54-.17-44.02,15.84-49.63,38.7-4.28,17.43-10.68,37.43-20.14,55.87-23.91,46.58-34.16,66.15-61.49,91.93-.75.7-1.48,1.39-2.2,2.06Z"/>
        <path class="cls-2" d="m914.44,712.95c-12-8.84-29-1.02-29.94,13.86-.29,4.63-.5,9.17-.56,13.26,0,.2,0,.4,0,.6-.38,25.43,20.74,46.18,46.15,44.84,5.68-.3,11.67-1.09,17.84-2.58,34.78-8.39,51.86-32.92,43.79-37.89s-42.55-12.42-62.42-22.67c-4.97-2.56-10.03-5.88-14.84-9.42Z"/>
      </g>
    </g>
  </g>
</svg>