<?xml version="1.0" encoding="UTF-8"?>
<svg id="body_front" xmlns="http://www.w3.org/2000/svg" viewBox="0 0 1500 3000">
  <g>
    <path id="silhouette" d="m88.6,1351.49c4.67-6.79,15.29-15.29,35.24-30.57s42.89-25.05,42.89-25.05c0,0,12.31-28.02,19.53-42.04,7.22-14.01,11.89-20.38,25.48-57.75,13.59-37.37,21.66-92.57,33.12-123.14,11.46-30.57,32.27-53.08,45.43-69.21,13.16-16.14,39.06-34.39,39.06-34.39,0,0,1.7-34.39,7.22-56.47,5.52-22.08,12.74-41.61,20.38-57.32s27.6-40.76,27.6-40.76c0,0-4.25-24.2-6.37-56.9s-1.7-92.57,27.18-139.7c28.87-47.13,69.64-59.45,116.34-78.98,46.71-19.53,122.71-50.53,137.15-79.83,14.44-29.3-1.7-65.82-9.77-84.92-8.07-19.11-7.64-25.48-7.64-25.48,0,0-25.05-28.45-29.3-39.91s-5.52-34.39,2.97-51.38c8.49-16.98,4.67-20.38,4.67-45.86s5.52-46.71,45.86-78.98,84.35-30.15,84.35-30.15v1418.19c-10.82-.03-14.14-1.94-14.14-1.94,0,0-6.72,130.06-17.56,184.29-10.85,54.23-11.95,78.04-13.92,118.46-1.97,40.42-5.1,84.97-11.36,144.88-6.17,59.06-23.31,124.52-32.95,145.45-8.98,19.51-8.34,31.78-3.41,51.99,4.93,20.21,17.78,73.05,20.74,119.88s3.15,93.85-19.03,155.96c-22.18,62.11-20.74,76.14-19.89,103.12.36,11.34-.85,36.94,2.27,114.77,3.12,77.84,11.93,123.02,12.5,159.09.56,35.58.57,52.27-38.65,52.79-16.26.21-24.13,1.76-48.34,10.65-34.28,12.6-84.9,14.92-124.66,11.84-40.34-3.12-53.69-14.2-53.69-21.87,0-10.35,37.22-36.17,60.51-50.57,22.32-13.8,52.56-36.65,69.6-59.09,10.77-14.18,20.71-28.26,19.6-82.38-1.13-54.98-15.62-96.02-28.34-149.79-13.06-55.23-35.33-126.68-39.44-229.23-2.75-80.59,14.88-172.98,22.44-211.06,7.56-38.08,23.55-90.12,14.83-141.29s-21.22-77.33-28.2-121.52-9.88-109.89-10.18-155.83c-.29-45.93,4.94-98.84,17.44-150.3,12.5-51.46,32.27-115.71,42.15-148.27,9.88-32.56,11.92-62.8,12.5-88.09s-1.16-42.44-6.69-64.54c-5.52-22.09-5.81-61.05,6.98-96.52s15.99-69.48,14.54-85.76c-1.45-16.28-19.07-38.17-34.82-61.98-15.75-23.8-28-54.43-28-54.43,0,0-3.5,9.45-7.53,20.48-4.03,11.03-12.43,22.75-25.73,36.75-13.3,14-23.5,29.4-23.5,29.4,0,0,3.27,19.21-3.68,59.28s-36.79,83.4-62.55,105.89c-25.76,22.49-43.34,40.92-72.35,72.55-29.01,31.63-56.9,90.78-56.9,90.78,0,0,2.06,3.74.75,28.26-1.31,24.52-16.1,66.44-27.33,92.65-11.23,26.2-58.4,29.57-90.4,16.47-32.01-13.1-27.7-29.76-26.39-46.42,1.31-16.66,26.76-66.07,26.76-66.07,0,0-8.05,4.87-14.6,8.98-6.55,4.12-13.66,8.24-19.65,4.3s-5.81-14.64-1.14-21.43Zm244.34-337.28c-5.25-7.35-9.29-9.14-9.29-9.14,0,0-26.94,16.1-38.84,36.74-11.9,20.64-24.49,37.44-27.29,61.93-2.8,24.49-9.61,57.08-25.35,94.52-2.93,6.96-5.97,13.72-9,20.13-5.61,11.89,9.23,22.85,18.99,14.04,13.93-12.58,28.79-27.88,40.91-44.78,32.89-45.84,45.32-66.01,52.31-111.15,7-45.14,2.8-54.93-2.45-62.28Zm110.37-410.32c-19.2,21.52-36.74,47.01-42.7,85.41s-5,46.6-3.34,65.8c1.66,19.2,6.08,41.66,6.08,41.66,0,0,31.7-26.81,51.57-56.28,19.86-29.46,51.42-95.47,80.5-122.38,29.08-26.91,49.93-37.84,49.93-37.84,0,0-17.89-12.12-56.63-13.12-38.73-.99-66.21,15.23-85.41,36.75Zm244.73-42.76c-3.44-7.42-7.22-18.02-9.88-31.54-1.27-6.45-1.72-27.84-2.72-34.61-.95-6.46-8.34-9.67-13.73-5.99-12.45,8.5-32.45,21.64-49.93,30.8-13.77,7.21-30.91,15.33-44.72,21.7-7.67,3.53-6.48,14.76,1.75,16.65.1.02.21.05.31.07,10.33,2.38,34.93,9.81,48.44,14.32,13.51,4.5,48.23,15.1,62.8,11.39,14.57-3.71,11.13-15.37,7.68-22.79Zm54.06,278.97c0-10-7.95-18.19-17.95-18.46-15.7-.42-39.85-.16-64.77,3.51-42.49,6.25-68.59,8.63-77.43,27.39-8.84,18.76.86,44.65,13.16,67.29s26.31,13.8,36.88,7.55c10.57-6.25,37.96-23.72,61.25-35.37,11.64-5.82,23.85-8.62,33.15-9.97,9.04-1.31,15.7-9.13,15.7-18.26v-23.68Zm-176.51,116.14c3.47,10.17,7.42,24.17,8.57,37.8.9,10.73,1.38,21.27,1.64,29.92.38,12.95,7.25,24.84,18.3,31.62,5.27,3.23,10.59,6.5,14.27,8.79,10.05,6.25,26.34,22.81,26.34,22.81,0,0,1.63-71.42-17.11-98.84-18.74-27.43-27.97-31.77-36.93-35.57-2.24-.95-4.67-2.15-7.05-3.42-4.55-2.43-9.71,2.01-8.04,6.9Zm-5.82,143.7c0,10.32,0,15.48,17.11,30.68s49.96,49.69,49.96,49.69c0,0,3.68-20.91,4.56-44.53.88-23.62-7.27-36.12-26.01-48.61-18.74-12.49-36.66-24.71-36.66-24.71,0,0-8.96,27.15-8.96,37.47Zm182.32-182.27c0-12.24-11.7-21.16-23.46-17.78-.63.18-1.27.37-1.92.57-13.96,4.3-22.55,8.38-45.97,20.84s-37.37,24.92-39.09,33.51c-1.72,8.59,5.37,23.84,11.6,37.8,6.23,13.96,16.11,10.31,24.7,7.09s11.38-4.51,31.36-7.52c8.1-1.22,16.67-1.45,23.99-1.29,10.32.22,18.78-8.14,18.78-18.46v-54.76Zm-103.52,511.08c-5.39-37.44-14.59-69.79-19.03-79.95-4.44-10.15-10.32-16.76-10.32-16.76,0,0-16.73,17.2-27.19,41.6-10.46,24.4-23.01,65.54-28.59,96.92-5.58,31.38-17.97,112.68-18.92,166.62-.95,53.93,2.86,120.87,16.18,162.43,13.32,41.56,25.7,43.46,34.26,43.15,8.57-.32,38.39-22.84,47.27-98.03s13.32-113.89,13.64-159.89c.32-46-1.9-118.65-7.3-156.08Zm103.52-405.21c0-10.18-8.24-18.48-18.43-18.46-14.29.02-33.51,1.28-44.76,7.09-19.55,10.1-27.06,29.21-26.85,46.61.21,17.4.21,38.88,11.81,54.34s12.89,19.55,34.37,19.76c8.87.09,17.89.1,25.42.09,10.18-.02,18.43-8.28,18.43-18.46v-90.97Zm-12.49,413.17c.06.05.13.11.19.16,4.91,4.03,12.3.45,12.3-5.9v-265.92c0-10.08-8.08-18.29-18.15-18.46-10.43-.17-22.63-.19-28.7.47-11.81,1.29-24.7,1.29-28.35,30.93-3.65,29.64-4.73,79.15,3.44,117.6,8.16,38.45,23.26,80.33,32.79,100.31,9.53,19.98,20.05,35.44,26.49,40.81Zm-35.69,282.05s5.24-9.86,7.24-20.74c2-10.88,12.03-65,13.46-117.4.55-20.03.89-36.09,1.09-48.28.32-18.52-3.34-30.52-13.96-45.69-5.22-7.45-10.75-15.59-14.99-22.45-11.17-18.04-34.05-51.98-34.05-51.98,0,0,8.53,35.29,11.42,73.29s3.95,55.75,3.24,83.1c-.31,11.89-.58,22.97-.79,31.71-.26,10.71,2.3,21.26,7.23,30.76,2.83,5.46,5.93,12.74,8.37,21.82,6.01,22.33,11.74,65.86,11.74,65.86Zm-56.79,732.77s26.67-43.45,25.81-141.98c-.86-98.52-21.08-138.53-21.08-138.53,0,0-9.03,52.92-12.05,144.56s7.31,135.95,7.31,135.95Zm-1.86-452.23c20.69.86,39.22-25.43,46.12-71.12,6.9-45.69,10.48-126.29,3.95-171.55-6.54-45.26-25.5-115.09-25.5-115.09,0,0,4.74,91.81-23.28,164.22-28.02,72.41-58.62,81.03-54.74,128.02s32.76,64.66,53.45,65.52Zm-130.22,134.72s-30.55,65.18-18.07,205.22,40.44,174.03,55.07,220.92,26.24,90.35,31.41,104.55c5.16,14.2,10.76,29.69,12.05-12.05,1.29-41.73-4.3-184.14-9.47-260.72-5.16-76.58-15.06-123.91-23.66-142.41-8.6-18.5-22.37-27.1-33.13-60.23-10.76-33.13-14.2-55.28-14.2-55.28Zm-20.21-409.73c3.88,63.36,12.5,143.54,31.9,179.74,19.4,36.21,38.79,53.02,41.81-2.59s-23.28-77.59-31.9-121.55-15.95-87.5-10.78-150.43c5.17-62.93,7.76-105.17,7.76-105.17,0,0-19.83,14.66-26.29,43.53-6.47,28.88-16.38,93.1-12.5,156.47Zm42.57-299.05c-7.67,24.17-18.59,51.19-23.24,72.78-4.65,21.58-2.56,30.88-2.56,30.88,0,0,5.35-1.86,16.97-25.8,11.62-23.94,20.68-61.13,33.47-97.85,12.78-36.72,18.13-50.2,28.59-67.17s13.71-20.91,13.71-20.91c0,0-13.02-6.98-21.38-16.27s-18.59-25.33-18.59-25.33c0,0,1.63,20.69-4.18,59.96-5.81,39.28-15.11,65.54-22.78,89.71Zm26.39-292.27s-13.31,21-9.78,54.95c3.53,33.94,18.74,63.54,38.02,86.62,19.28,23.08,22,24.71,30.14,30.68,8.15,5.97,23.08,11.95,23.08,11.95,0,0-1.78-60.32-4.73-75.86-2.95-15.54-6.5-24.94-14.28-36.56-19.17-28.64-62.46-71.78-62.46-71.78Zm-55.36-246.12c7.7,27.64,20.99,58.08,30.79,73.13,9.8,15.05,24.14,32.54,24.14,32.54,0,0-1.05-18.89-4.2-29.04s-9.45-21.34,4.2-41.64,11.2-39.19,10.5-49.69c-.34-5.14-.85-13.81-1.29-21.32-.49-8.56-5.45-16.2-13.01-20.25-4.8-2.57-10.23-5.81-14.75-9.37-10.85-8.54-25.19-28.49-25.19-28.49,0,0,1.4,16.1-6.3,33.94-7.7,17.84-12.6,32.54-4.9,60.18Zm5.17-127.78c18.81,9.54,17.75,19.61,30.47,33.12s30.49,21.38,55.93,24.82c25.44,3.44,43.02-9.37,70.31-11.23,11.92-.81,29.04-.67,44.53-.27,20.4.54,37.21-15.88,37.18-36.28-.06-38.87-.1-95.57.07-109.01.26-20.93-6.82-37.85-30.47-46.11,0,0-42.44-9.96-62.58-13.67-20.14-3.71-40.73-12.19-61.92,0-21.2,12.19-45,33.48-56.13,50.7-11.13,17.22-22.19,38.49-33.32,56.51-4.88,7.9-10.57,17.29-15.41,25.35-4.78,7.95-.68,18.18,8.22,20.8,3.95,1.16,8.38,2.84,13.14,5.25Zm-27.92,114.49c-.35-15.4,1.33-39.54,10.81-61.93,9.48-22.39,4.94-33.59-3.81-37.09-8.75-3.5-18.03-1.75-18.03-1.75-16.26,1.4-32.77,27.5-43.97,34.85-11.2,7.35-29.04,19.24-43.74,50.39s-22.74,56.33-26.59,90.27c-3.85,33.94-3.08,56.82,4.62,65.57s26.94,21.69,71.73-27.99c44.79-49.69,49.34-96.92,48.99-112.32Zm-265.59,439.87c14.12.9,25.54-2.4,25.54-2.4,0,0,25.54-46.87,55.28-81.41s81.71-71.8,101.24-106.65c19.53-34.85,23.82-46.56,25.88-65.19,2.06-18.63,2.66-39.66,2.66-39.66,0,0-12.02,20.13-31.24,22.53s-36.05-3.91-36.05-3.91c0,0,2.7,41.46-10.21,76.61s-23.43,61.29-56.78,97.34c-33.35,36.05-98.24,89.22-98.24,89.22,0,0,7.81,12.62,21.93,13.52Z" style="fill: #454758; stroke-width: 0px;"/>
    <g>
      <path id="chest" d="m711.63,614.11s-42.44-9.96-62.58-13.67-40.73-12.19-61.93,0-45,33.48-56.13,50.7-22.19,38.49-33.32,56.51c-4.88,7.9-10.57,17.29-15.41,25.35s-.68,18.18,8.22,20.8c3.95,1.16,8.38,2.84,13.14,5.25,18.81,9.54,17.75,19.61,30.47,33.12s30.49,21.38,55.93,24.82c25.44,3.44,43.01-9.37,70.31-11.23,11.92-.81,29.04-.67,44.53-.27,20.4.54,37.21-15.88,37.18-36.28-.06-38.87-.1-95.57.07-109.01.26-20.93-6.82-37.85-30.47-46.11Z" style="fill: #8c77b6; stroke-width: 0px;"/>
      <path id="shoulders" d="m585.35,580.25s-17.89-12.12-56.63-13.12-66.21,15.23-85.41,36.75c-19.2,21.52-36.75,47.01-42.7,85.41-5.96,38.4-5,46.6-3.34,65.8,1.66,19.2,6.08,41.66,6.08,41.66,0,0,31.7-26.81,51.57-56.28,19.86-29.46,51.42-95.47,80.5-122.38s49.93-37.84,49.93-37.84Z" style="fill: #8c77b6; stroke-width: 0px;"/>
      <path id="adductors" d="m652.72,1412.21s8.53,35.29,11.42,73.29c2.89,38,3.95,55.75,3.24,83.1-.31,11.89-.58,22.97-.79,31.71-.26,10.71,2.3,21.26,7.23,30.76,2.83,5.46,5.93,12.74,8.37,21.82,6.01,22.33,11.74,65.86,11.74,65.86,0,0,5.24-9.86,7.24-20.74s12.03-65,13.46-117.4c.55-20.03.89-36.09,1.09-48.28.32-18.52-3.34-30.52-13.96-45.69-5.22-7.46-10.75-15.59-14.99-22.45-11.17-18.04-34.05-51.98-34.05-51.98Z" style="fill: #8c77b6; stroke-width: 0px;"/>
      <path id="biceps" d="m464.66,772.78c-16.26,1.4-32.77,27.5-43.97,34.85-11.2,7.35-29.04,19.24-43.74,50.39-14.7,31.14-22.74,56.33-26.59,90.27-3.85,33.94-3.08,56.82,4.62,65.57,7.7,8.75,26.94,21.69,71.73-27.99,44.79-49.69,49.34-96.92,48.99-112.32-.35-15.4,1.33-39.54,10.81-61.93s4.94-33.59-3.81-37.09-18.03-1.75-18.03-1.75Z" style="fill: #8c77b6; stroke-width: 0px;"/>
      <path id="lats" d="m509.64,792.72s1.4,16.1-6.3,33.94c-7.7,17.84-12.6,32.54-4.9,60.18,7.7,27.64,20.99,58.08,30.79,73.13s24.14,32.54,24.14,32.54c0,0-1.05-18.89-4.2-29.04s-9.45-21.34,4.2-41.64,11.2-39.19,10.5-49.69c-.34-5.14-.85-13.81-1.29-21.32-.49-8.56-5.45-16.2-13.01-20.25-4.8-2.57-10.23-5.81-14.75-9.37-10.85-8.54-25.19-28.49-25.19-28.49Z" style="fill: #8c77b6; stroke-width: 0px;"/>
      <path id="abductors" d="m594.36,1317.16s-13.02-6.98-21.38-16.27-18.59-25.33-18.59-25.33c0,0,1.63,20.69-4.18,59.96-5.81,39.28-15.11,65.54-22.78,89.71s-18.59,51.19-23.24,72.78-2.56,30.88-2.56,30.88c0,0,5.35-1.86,16.97-25.8s20.69-61.13,33.47-97.85c12.78-36.72,18.13-50.2,28.59-67.17s13.71-20.91,13.71-20.91Z" style="fill: #8c77b6; stroke-width: 0px;"/>
      <path id="abs" d="m742.11,840.08c0-10-7.95-18.19-17.95-18.46-15.7-.42-39.85-.16-64.77,3.51-42.49,6.25-68.59,8.63-77.43,27.39-8.84,18.76.86,44.65,13.16,67.29s26.31,13.8,36.88,7.55c10.57-6.25,37.96-23.72,61.25-35.37,11.64-5.82,23.85-8.62,33.15-9.97s15.7-9.13,15.7-18.26v-23.68Zm0,132.34c0,10.32-8.46,18.68-18.78,18.46-7.32-.16-15.89.07-23.99,1.29-19.98,3.01-22.77,4.3-31.36,7.52-8.59,3.22-18.47,6.87-24.7-7.09-6.23-13.96-13.32-29.21-11.6-37.8s15.68-21.05,39.09-33.51c23.41-12.46,32-16.54,45.97-20.84.64-.2,1.28-.39,1.92-.57,11.76-3.39,23.46,5.54,23.46,17.78v54.76Zm0,142.07c0,10.18-8.24,18.45-18.43,18.46-7.53.01-16.55,0-25.42-.09-21.48-.21-22.77-4.3-34.37-19.76-11.6-15.47-11.6-36.95-11.81-54.34s7.3-36.52,26.85-46.61c11.24-5.81,30.46-7.07,44.76-7.09,10.18-.02,18.43,8.28,18.43,18.46v90.97Zm0,316.47c0,6.35-7.39,9.93-12.3,5.9-.06-.05-.13-.11-.19-.16-6.44-5.37-16.97-20.84-26.49-40.81-9.53-19.98-24.63-61.86-32.79-100.31s-7.09-87.96-3.44-117.6,16.54-29.64,28.35-30.93c6.07-.66,18.27-.64,28.7-.47,10.08.17,18.15,8.38,18.15,18.46v265.92Z" style="fill: #8c77b6; stroke-width: 0px;"/>
      <path id="calves" d="m629.83,2315.56c-3.01,91.64,7.31,135.95,7.31,135.95,0,0,26.67-43.45,25.81-141.98s-21.08-138.53-21.08-138.53c0,0-9.03,52.92-12.05,144.56Zm-110.57-126.27c10.76,33.13,24.52,41.73,33.13,60.23,8.6,18.5,18.5,65.83,23.66,142.41,5.16,76.58,10.76,218.99,9.47,260.72-1.29,41.73-6.88,26.24-12.05,12.05s-16.78-57.65-31.41-104.55-42.59-80.88-55.07-220.92c-12.48-140.04,18.07-205.22,18.07-205.22,0,0,3.44,22.16,14.2,55.28Z" style="fill: #8c77b6; stroke-width: 0px;"/>
      <path id="forearms" d="m323.66,1005.06s-26.94,16.1-38.84,36.74c-11.9,20.64-24.49,37.44-27.29,61.93-2.8,24.49-9.61,57.08-25.35,94.52-2.93,6.96-5.97,13.72-9,20.13-5.61,11.89,9.23,22.85,18.99,14.04,13.93-12.58,28.79-27.88,40.91-44.78,32.89-45.84,45.32-66.01,52.31-111.15,7-45.14,2.8-54.93-2.45-62.28-5.25-7.35-9.29-9.14-9.29-9.14Zm94.38,52.7c-2.06,18.63-6.35,30.34-25.88,65.19-19.53,34.85-71.5,72.1-101.24,106.65-29.74,34.55-55.28,81.41-55.28,81.41,0,0-11.42,3.3-25.54,2.4-14.12-.9-21.93-13.52-21.93-13.52,0,0,64.89-53.17,98.24-89.22,33.35-36.05,43.86-62.19,56.78-97.34,12.92-35.15,10.21-76.61,10.21-76.61,0,0,16.82,6.31,36.05,3.91,19.23-2.4,31.24-22.53,31.24-22.53,0,0-.6,21.03-2.66,39.66Z" style="fill: #8c77b6; stroke-width: 0px;"/>
      <path id="obliques" d="m634.73,1087.17s1.63-71.42-17.11-98.84c-18.74-27.43-27.97-31.77-36.93-35.57-2.24-.95-4.67-2.15-7.05-3.42-4.55-2.43-9.71,2.01-8.04,6.9,3.47,10.17,7.42,24.17,8.57,37.8.9,10.73,1.38,21.27,1.64,29.92.38,12.95,7.25,24.84,18.3,31.62,5.27,3.23,10.59,6.5,14.27,8.79,10.05,6.25,26.34,22.81,26.34,22.81Zm-29.33,0c18.74,12.49,26.88,24.98,26.01,48.61s-4.56,44.53-4.56,44.53c0,0-32.86-34.49-49.96-49.69-17.11-15.21-17.11-20.37-17.11-30.68s8.96-37.47,8.96-37.47c0,0,17.92,12.22,36.66,24.71Zm25.14,154.13c2.95,15.54,4.73,75.86,4.73,75.86,0,0-14.93-5.97-23.08-11.95s-10.86-7.6-30.14-30.68c-19.28-23.08-34.49-52.68-38.02-86.62-3.53-33.94,9.78-54.95,9.78-54.95,0,0,43.28,43.15,62.46,71.78,7.78,11.62,11.33,21.01,14.28,36.56Z" style="fill: #8c77b6; stroke-width: 0px;"/>
      <path id="quads" d="m609.23,1332.03s-16.73,17.2-27.19,41.6-23.01,65.54-28.59,96.92-17.97,112.68-18.92,166.62c-.95,53.93,2.86,120.87,16.18,162.43,13.32,41.56,25.7,43.46,34.26,43.15,8.57-.32,38.39-22.84,47.27-98.03s13.32-113.89,13.64-159.89-1.9-118.65-7.3-156.08c-5.39-37.44-14.59-69.79-19.03-79.95-4.44-10.15-10.32-16.76-10.32-16.76Zm76.12,424.57c6.54,45.26,2.95,125.86-3.95,171.55s-25.43,71.98-46.12,71.12c-20.69-.86-49.57-18.53-53.45-65.52-3.88-46.98,26.72-55.6,54.74-128.02s23.28-164.22,23.28-164.22c0,0,18.97,69.83,25.5,115.09Zm-169.47-127.16c-5.17,62.93,2.16,106.47,10.78,150.43s34.91,65.95,31.9,121.55-22.41,38.79-41.81,2.59c-19.4-36.21-28.02-116.38-31.9-179.74-3.88-63.36,6.03-127.59,12.5-156.47,6.47-28.88,26.29-43.53,26.29-43.53,0,0-2.59,42.24-7.76,105.17Z" style="fill: #8c77b6; stroke-width: 0px;"/>
      <path id="traps" d="m661.71,488.98c5.39-3.68,12.78-.47,13.73,5.99s1.45,28.15,2.72,34.61c2.66,13.53,6.43,24.12,9.88,31.54s6.89,19.08-7.68,22.79-49.29-6.89-62.8-11.39-38.11-11.93-48.44-14.32c-.1-.02-.21-.05-.31-.07-8.23-1.89-9.41-13.12-1.75-16.65,13.81-6.36,30.95-14.49,44.72-21.7,17.49-9.16,37.49-22.3,49.93-30.8Z" style="fill: #8c77b6; stroke-width: 0px;"/>
    </g>
  </g>
  <g>
    <path id="silhouette-2" data-name="silhouette" d="m1411.4,1351.49c-4.67-6.79-15.29-15.29-35.24-30.57s-42.89-25.05-42.89-25.05c0,0-12.31-28.02-19.53-42.04-7.22-14.01-11.89-20.38-25.48-57.75-13.59-37.37-21.66-92.57-33.12-123.14-11.46-30.57-32.27-53.08-45.43-69.21-13.16-16.14-39.06-34.39-39.06-34.39,0,0-1.7-34.39-7.22-56.47-5.52-22.08-12.74-41.61-20.38-57.32s-27.6-40.76-27.6-40.76c0,0,4.25-24.2,6.37-56.9s1.7-92.57-27.18-139.7c-28.87-47.13-69.64-59.45-116.34-78.98-46.71-19.53-122.71-50.53-137.15-79.83-14.44-29.3,1.7-65.82,9.77-84.92,8.07-19.11,7.64-25.48,7.64-25.48,0,0,25.05-28.45,29.3-39.91s5.52-34.39-2.97-51.38c-8.49-16.98-4.67-20.38-4.67-45.86s-5.52-46.71-45.86-78.98-84.35-30.15-84.35-30.15v1418.19c10.82-.03,14.14-1.94,14.14-1.94,0,0,6.72,130.06,17.56,184.29,10.85,54.23,11.95,78.04,13.92,118.46,1.97,40.42,5.1,84.97,11.36,144.88,6.17,59.06,23.31,124.52,32.95,145.45,8.98,19.51,8.34,31.78,3.41,51.99-4.93,20.21-17.78,73.05-20.74,119.88s-3.15,93.85,19.03,155.96c22.18,62.11,20.74,76.14,19.89,103.12-.36,11.34.85,36.94-2.27,114.77-3.12,77.84-11.93,123.02-12.5,159.09-.56,35.58-.57,52.27,38.65,52.79,16.26.21,24.13,1.76,48.34,10.65,34.28,12.6,84.9,14.92,124.66,11.84,40.34-3.12,53.69-14.2,53.69-21.87,0-10.35-37.22-36.17-60.51-50.57-22.32-13.8-52.56-36.65-69.6-59.09-10.77-14.18-20.71-28.26-19.6-82.38,1.13-54.98,15.62-96.02,28.34-149.79,13.06-55.23,35.33-126.68,39.44-229.23,2.75-80.59-14.88-172.98-22.44-211.06-7.56-38.08-23.55-90.12-14.83-141.29s21.22-77.33,28.2-121.52,9.88-109.89,10.18-155.83c.29-45.93-4.94-98.84-17.44-150.3-12.5-51.46-32.27-115.71-42.15-148.27-9.88-32.56-11.92-62.8-12.5-88.09s1.16-42.44,6.69-64.54c5.52-22.09,5.81-61.05-6.98-96.52s-15.99-69.48-14.54-85.76c1.45-16.28,19.07-38.17,34.82-61.98,15.75-23.8,28-54.43,28-54.43,0,0,3.5,9.45,7.53,20.48,4.03,11.03,12.43,22.75,25.73,36.75,13.3,14,23.5,29.4,23.5,29.4,0,0-3.27,19.21,3.68,59.28s36.79,83.4,62.55,105.89c25.76,22.49,43.34,40.92,72.35,72.55,29.01,31.63,56.9,90.78,56.9,90.78,0,0-2.06,3.74-.75,28.26,1.31,24.52,16.1,66.44,27.33,92.65,11.23,26.2,58.4,29.57,90.4,16.47,32.01-13.1,27.7-29.76,26.39-46.42-1.31-16.66-26.76-66.07-26.76-66.07,0,0,8.05,4.87,14.6,8.98,6.55,4.12,13.66,8.24,19.65,4.3s5.81-14.64,1.14-21.43Zm-244.34-337.28c5.25-7.35,9.29-9.14,9.29-9.14,0,0,26.94,16.1,38.84,36.74,11.9,20.64,24.49,37.44,27.29,61.93,2.8,24.49,9.61,57.08,25.35,94.52,2.93,6.96,5.97,13.72,9,20.13,5.61,11.89-9.23,22.85-18.99,14.04-13.93-12.58-28.79-27.88-40.91-44.78-32.89-45.84-45.32-66.01-52.31-111.15-7-45.14-2.8-54.93,2.45-62.28Zm-110.37-410.32c19.2,21.52,36.74,47.01,42.7,85.41s5,46.6,3.34,65.8c-1.66,19.2-6.08,41.66-6.08,41.66,0,0-31.7-26.81-51.57-56.28-19.86-29.46-51.42-95.47-80.5-122.38-29.08-26.91-49.93-37.84-49.93-37.84,0,0,17.89-12.12,56.63-13.12,38.73-.99,66.21,15.23,85.41,36.75Zm-244.73-42.76c3.44-7.42,7.22-18.02,9.88-31.54,1.27-6.45,1.72-27.84,2.72-34.61.95-6.46,8.34-9.67,13.73-5.99,12.45,8.5,32.45,21.64,49.93,30.8,13.77,7.21,30.91,15.33,44.72,21.7,7.67,3.53,6.48,14.76-1.75,16.65-.1.02-.21.05-.31.07-10.33,2.38-34.93,9.81-48.44,14.32-13.51,4.5-48.23,15.1-62.8,11.39-14.57-3.71-11.13-15.37-7.68-22.79Zm-54.06,278.97c0-10,7.95-18.19,17.95-18.46,15.7-.42,39.85-.16,64.77,3.51,42.49,6.25,68.59,8.63,77.43,27.39,8.84,18.76-.86,44.65-13.16,67.29s-26.31,13.8-36.88,7.55c-10.57-6.25-37.96-23.72-61.25-35.37-11.64-5.82-23.85-8.62-33.15-9.97-9.04-1.31-15.7-9.13-15.7-18.26v-23.68Zm176.51,116.14c-3.47,10.17-7.42,24.17-8.57,37.8-.9,10.73-1.38,21.27-1.64,29.92-.38,12.95-7.25,24.84-18.3,31.62-5.27,3.23-10.59,6.5-14.27,8.79-10.05,6.25-26.34,22.81-26.34,22.81,0,0-1.63-71.42,17.11-98.84,18.74-27.43,27.97-31.77,36.93-35.57,2.24-.95,4.67-2.15,7.05-3.42,4.55-2.43,9.71,2.01,8.04,6.9Zm5.82,143.7c0,10.32,0,15.48-17.11,30.68s-49.96,49.69-49.96,49.69c0,0-3.68-20.91-4.56-44.53-.88-23.62,7.27-36.12,26.01-48.61,18.74-12.49,36.66-24.71,36.66-24.71,0,0,8.96,27.15,8.96,37.47Zm-182.32-182.27c0-12.24,11.7-21.16,23.46-17.78.63.18,1.27.37,1.92.57,13.96,4.3,22.55,8.38,45.97,20.84s37.37,24.92,39.09,33.51c1.72,8.59-5.37,23.84-11.6,37.8-6.23,13.96-16.11,10.31-24.7,7.09s-11.38-4.51-31.36-7.52c-8.1-1.22-16.67-1.45-23.99-1.29-10.32.22-18.78-8.14-18.78-18.46v-54.76Zm103.52,511.08c5.39-37.44,14.59-69.79,19.03-79.95,4.44-10.15,10.32-16.76,10.32-16.76,0,0,16.73,17.2,27.19,41.6,10.46,24.4,23.01,65.54,28.59,96.92,5.58,31.38,17.97,112.68,18.92,166.62.95,53.93-2.86,120.87-16.18,162.43-13.32,41.56-25.7,43.46-34.26,43.15-8.57-.32-38.39-22.84-47.27-98.03s-13.32-113.89-13.64-159.89c-.32-46,1.9-118.65,7.3-156.08Zm-103.52-405.21c0-10.18,8.24-18.48,18.43-18.46,14.29.02,33.51,1.28,44.76,7.09,19.55,10.1,27.06,29.21,26.85,46.61-.21,17.4-.21,38.88-11.81,54.34s-12.89,19.55-34.37,19.76c-8.87.09-17.89.1-25.42.09-10.18-.02-18.43-8.28-18.43-18.46v-90.97Zm12.49,413.17c-.06.05-.13.11-.19.16-4.91,4.03-12.3.45-12.3-5.9v-265.92c0-10.08,8.08-18.29,18.15-18.46,10.43-.17,22.63-.19,28.7.47,11.81,1.29,24.7,1.29,28.35,30.93,3.65,29.64,4.73,79.15-3.44,117.6-8.16,38.45-23.26,80.33-32.79,100.31-9.53,19.98-20.05,35.44-26.49,40.81Zm35.69,282.05s-5.24-9.86-7.24-20.74c-2-10.88-12.03-65-13.46-117.4-.55-20.03-.89-36.09-1.09-48.28-.32-18.52,3.34-30.52,13.96-45.69,5.22-7.45,10.75-15.59,14.99-22.45,11.17-18.04,34.05-51.98,34.05-51.98,0,0-8.53,35.29-11.42,73.29s-3.95,55.75-3.24,83.1c.31,11.89.58,22.97.79,31.71.26,10.71-2.3,21.26-7.23,30.76-2.83,5.46-5.93,12.74-8.37,21.82-6.01,22.33-11.74,65.86-11.74,65.86Zm56.79,732.77s-26.67-43.45-25.81-141.98c.86-98.52,21.08-138.53,21.08-138.53,0,0,9.03,52.92,12.05,144.56s-7.31,135.95-7.31,135.95Zm1.86-452.23c-20.69.86-39.22-25.43-46.12-71.12-6.9-45.69-10.48-126.29-3.95-171.55,6.54-45.26,25.5-115.09,25.5-115.09,0,0-4.74,91.81,23.28,164.22,28.02,72.41,58.62,81.03,54.74,128.02s-32.76,64.66-53.45,65.52Zm130.22,134.72s30.55,65.18,18.07,205.22-40.44,174.03-55.07,220.92-26.24,90.35-31.41,104.55c-5.16,14.2-10.76,29.69-12.05-12.05-1.29-41.73,4.3-184.14,9.47-260.72,5.16-76.58,15.06-123.91,23.66-142.41,8.6-18.5,22.37-27.1,33.13-60.23,10.76-33.13,14.2-55.28,14.2-55.28Zm20.21-409.73c-3.88,63.36-12.5,143.54-31.9,179.74-19.4,36.21-38.79,53.02-41.81-2.59s23.28-77.59,31.9-121.55,15.95-87.5,10.78-150.43c-5.17-62.93-7.76-105.17-7.76-105.17,0,0,19.83,14.66,26.29,43.53,6.47,28.88,16.38,93.1,12.5,156.47Zm-42.57-299.05c7.67,24.17,18.59,51.19,23.24,72.78,4.65,21.58,2.56,30.88,2.56,30.88,0,0-5.35-1.86-16.97-25.8-11.62-23.94-20.68-61.13-33.47-97.85-12.78-36.72-18.13-50.2-28.59-67.17s-13.71-20.91-13.71-20.91c0,0,13.02-6.98,21.38-16.27s18.59-25.33,18.59-25.33c0,0-1.63,20.69,4.18,59.96,5.81,39.28,15.11,65.54,22.78,89.71Zm-26.39-292.27s13.31,21,9.78,54.95c-3.53,33.94-18.74,63.54-38.02,86.62-19.28,23.08-22,24.71-30.14,30.68-8.15,5.97-23.08,11.95-23.08,11.95,0,0,1.78-60.32,4.73-75.86,2.95-15.54,6.5-24.94,14.28-36.56,19.17-28.64,62.46-71.78,62.46-71.78Zm55.36-246.12c-7.7,27.64-20.99,58.08-30.79,73.13-9.8,15.05-24.14,32.54-24.14,32.54,0,0,1.05-18.89,4.2-29.04s9.45-21.34-4.2-41.64-11.2-39.19-10.5-49.69c.34-5.14.85-13.81,1.29-21.32.49-8.56,5.45-16.2,13.01-20.25,4.8-2.57,10.23-5.81,14.75-9.37,10.85-8.54,25.19-28.49,25.19-28.49,0,0-1.4,16.1,6.3,33.94,7.7,17.84,12.6,32.54,4.9,60.18Zm-5.17-127.78c-18.81,9.54-17.75,19.61-30.47,33.12s-30.49,21.38-55.93,24.82c-25.44,3.44-43.02-9.37-70.31-11.23-11.92-.81-29.04-.67-44.53-.27-20.4.54-37.21-15.88-37.18-36.28.06-38.87.1-95.57-.07-109.01-.26-20.93,6.82-37.85,30.47-46.11,0,0,42.44-9.96,62.58-13.67,20.14-3.71,40.73-12.19,61.92,0,21.2,12.19,45,33.48,56.13,50.7,11.13,17.22,22.19,38.49,33.32,56.51,4.88,7.9,10.57,17.29,15.41,25.35,4.78,7.95.68,18.18-8.22,20.8-3.95,1.16-8.38,2.84-13.14,5.25Zm27.92,114.49c.35-15.4-1.33-39.54-10.81-61.93-9.48-22.39-4.94-33.59,3.81-37.09,8.75-3.5,18.03-1.75,18.03-1.75,16.26,1.4,32.77,27.5,43.97,34.85,11.2,7.35,29.04,19.24,43.74,50.39s22.74,56.33,26.59,90.27c3.85,33.94,3.08,56.82-4.62,65.57s-26.94,21.69-71.73-27.99c-44.79-49.69-49.34-96.92-48.99-112.32Zm265.59,439.87c-14.12.9-25.54-2.4-25.54-2.4,0,0-25.54-46.87-55.28-81.41s-81.71-71.8-101.24-106.65c-19.53-34.85-23.82-46.56-25.88-65.19-2.06-18.63-2.66-39.66-2.66-39.66,0,0,12.02,20.13,31.24,22.53s36.05-3.91,36.05-3.91c0,0-2.7,41.46,10.21,76.61s23.43,61.29,56.78,97.34c33.35,36.05,98.24,89.22,98.24,89.22,0,0-7.81,12.62-21.93,13.52Z" style="fill: #454758; stroke-width: 0px;"/>
    <g>
      <path id="chest-2" data-name="chest" d="m788.37,614.11s42.44-9.96,62.58-13.67,40.73-12.19,61.93,0,45,33.48,56.13,50.7,22.19,38.49,33.32,56.51c4.88,7.9,10.57,17.29,15.41,25.35s.68,18.18-8.22,20.8c-3.95,1.16-8.38,2.84-13.14,5.25-18.81,9.54-17.75,19.61-30.47,33.12s-30.49,21.38-55.93,24.82c-25.44,3.44-43.01-9.37-70.31-11.23-11.92-.81-29.04-.67-44.53-.27-20.4.54-37.21-15.88-37.18-36.28.06-38.87.1-95.57-.07-109.01-.26-20.93,6.82-37.85,30.47-46.11Z" style="fill: #8c77b6; stroke-width: 0px;"/>
      <path id="shoulders-2" data-name="shoulders" d="m914.65,580.25s17.89-12.12,56.63-13.12,66.21,15.23,85.41,36.75c19.2,21.52,36.75,47.01,42.7,85.41,5.96,38.4,5,46.6,3.34,65.8-1.66,19.2-6.08,41.66-6.08,41.66,0,0-31.7-26.81-51.57-56.28-19.86-29.46-51.42-95.47-80.5-122.38s-49.93-37.84-49.93-37.84Z" style="fill: #8c77b6; stroke-width: 0px;"/>
      <path id="adductors-2" data-name="adductors" d="m847.28,1412.21s-8.53,35.29-11.42,73.29c-2.89,38-3.95,55.75-3.24,83.1.31,11.89.58,22.97.79,31.71.26,10.71-2.3,21.26-7.23,30.76-2.83,5.46-5.93,12.74-8.37,21.82-6.01,22.33-11.74,65.86-11.74,65.86,0,0-5.24-9.86-7.24-20.74s-12.03-65-13.46-117.4c-.55-20.03-.89-36.09-1.09-48.28-.32-18.52,3.34-30.52,13.96-45.69,5.22-7.46,10.75-15.59,14.99-22.45,11.17-18.04,34.05-51.98,34.05-51.98Z" style="fill: #8c77b6; stroke-width: 0px;"/>
      <path id="biceps-2" data-name="biceps" d="m1035.34,772.78c16.26,1.4,32.77,27.5,43.97,34.85,11.2,7.35,29.04,19.24,43.74,50.39,14.7,31.14,22.74,56.33,26.59,90.27,3.85,33.94,3.08,56.82-4.62,65.57-7.7,8.75-26.94,21.69-71.73-27.99-44.79-49.69-49.34-96.92-48.99-112.32.35-15.4-1.33-39.54-10.81-61.93s-4.94-33.59,3.81-37.09,18.03-1.75,18.03-1.75Z" style="fill: #8c77b6; stroke-width: 0px;"/>
      <path id="lats-2" data-name="lats" d="m990.36,792.72s-1.4,16.1,6.3,33.94c7.7,17.84,12.6,32.54,4.9,60.18-7.7,27.64-20.99,58.08-30.79,73.13s-24.14,32.54-24.14,32.54c0,0,1.05-18.89,4.2-29.04s9.45-21.34-4.2-41.64-11.2-39.19-10.5-49.69c.34-5.14.85-13.81,1.29-21.32.49-8.56,5.45-16.2,13.01-20.25,4.8-2.57,10.23-5.81,14.75-9.37,10.85-8.54,25.19-28.49,25.19-28.49Z" style="fill: #8c77b6; stroke-width: 0px;"/>
      <path id="abductors-2" data-name="abductors" d="m905.64,1317.16s13.02-6.98,21.38-16.27,18.59-25.33,18.59-25.33c0,0-1.63,20.69,4.18,59.96,5.81,39.28,15.11,65.54,22.78,89.71s18.59,51.19,23.24,72.78,2.56,30.88,2.56,30.88c0,0-5.35-1.86-16.97-25.8s-20.69-61.13-33.47-97.85c-12.78-36.72-18.13-50.2-28.59-67.17s-13.71-20.91-13.71-20.91Z" style="fill: #8c77b6; stroke-width: 0px;"/>
      <path id="abs-2" data-name="abs" d="m757.89,840.08c0-10,7.95-18.19,17.95-18.46,15.7-.42,39.85-.16,64.77,3.51,42.49,6.25,68.59,8.63,77.43,27.39,8.84,18.76-.86,44.65-13.16,67.29s-26.31,13.8-36.88,7.55c-10.57-6.25-37.96-23.72-61.25-35.37-11.64-5.82-23.85-8.62-33.15-9.97s-15.7-9.13-15.7-18.26v-23.68Zm0,132.34c0,10.32,8.46,18.68,18.78,18.46,7.32-.16,15.89.07,23.99,1.29,19.98,3.01,22.77,4.3,31.36,7.52,8.59,3.22,18.47,6.87,24.7-7.09,6.23-13.96,13.32-29.21,11.6-37.8s-15.68-21.05-39.09-33.51c-23.41-12.46-32-16.54-45.97-20.84-.64-.2-1.28-.39-1.92-.57-11.76-3.39-23.46,5.54-23.46,17.78v54.76Zm0,142.07c0,10.18,8.24,18.45,18.43,18.46,7.53.01,16.55,0,25.42-.09,21.48-.21,22.77-4.3,34.37-19.76,11.6-15.47,11.6-36.95,11.81-54.34s-7.3-36.52-26.85-46.61c-11.24-5.81-30.46-7.07-44.76-7.09-10.18-.02-18.43,8.28-18.43,18.46v90.97Zm0,316.47c0,6.35,7.39,9.93,12.3,5.9.06-.05.13-.11.19-.16,6.44-5.37,16.97-20.84,26.49-40.81,9.53-19.98,24.63-61.86,32.79-100.31s7.09-87.96,3.44-117.6-16.54-29.64-28.35-30.93c-6.07-.66-18.27-.64-28.7-.47-10.08.17-18.15,8.38-18.15,18.46v265.92Z" style="fill: #8c77b6; stroke-width: 0px;"/>
      <path id="calves-2" data-name="calves" d="m870.17,2315.56c3.01,91.64-7.31,135.95-7.31,135.95,0,0-26.67-43.45-25.81-141.98s21.08-138.53,21.08-138.53c0,0,9.03,52.92,12.05,144.56Zm110.57-126.27c-10.76,33.13-24.52,41.73-33.13,60.23-8.6,18.5-18.5,65.83-23.66,142.41-5.16,76.58-10.76,218.99-9.47,260.72,1.29,41.73,6.88,26.24,12.05,12.05s16.78-57.65,31.41-104.55,42.59-80.88,55.07-220.92c12.48-140.04-18.07-205.22-18.07-205.22,0,0-3.44,22.16-14.2,55.28Z" style="fill: #8c77b6; stroke-width: 0px;"/>
      <path id="forearms-2" data-name="forearms" d="m1176.34,1005.06s26.94,16.1,38.84,36.74c11.9,20.64,24.49,37.44,27.29,61.93,2.8,24.49,9.61,57.08,25.35,94.52,2.93,6.96,5.97,13.72,9,20.13,5.61,11.89-9.23,22.85-18.99,14.04-13.93-12.58-28.79-27.88-40.91-44.78-32.89-45.84-45.32-66.01-52.31-111.15-7-45.14-2.8-54.93,2.45-62.28,5.25-7.35,9.29-9.14,9.29-9.14Zm-94.38,52.7c2.06,18.63,6.35,30.34,25.88,65.19,19.53,34.85,71.5,72.1,101.24,106.65,29.74,34.55,55.28,81.41,55.28,81.41,0,0,11.42,3.3,25.54,2.4,14.12-.9,21.93-13.52,21.93-13.52,0,0-64.89-53.17-98.24-89.22-33.35-36.05-43.86-62.19-56.78-97.34-12.92-35.15-10.21-76.61-10.21-76.61,0,0-16.82,6.31-36.05,3.91-19.23-2.4-31.24-22.53-31.24-22.53,0,0,.6,21.03,2.66,39.66Z" style="fill: #8c77b6; stroke-width: 0px;"/>
      <path id="obliques-2" data-name="obliques" d="m865.27,1087.17s-1.63-71.42,17.11-98.84c18.74-27.43,27.97-31.77,36.93-35.57,2.24-.95,4.67-2.15,7.05-3.42,4.55-2.43,9.71,2.01,8.04,6.9-3.47,10.17-7.42,24.17-8.57,37.8-.9,10.73-1.38,21.27-1.64,29.92-.38,12.95-7.25,24.84-18.3,31.62-5.27,3.23-10.59,6.5-14.27,8.79-10.05,6.25-26.34,22.81-26.34,22.81Zm29.33,0c-18.74,12.49-26.88,24.98-26.01,48.61s4.56,44.53,4.56,44.53c0,0,32.86-34.49,49.96-49.69,17.11-15.21,17.11-20.37,17.11-30.68s-8.96-37.47-8.96-37.47c0,0-17.92,12.22-36.66,24.71Zm-25.14,154.13c-2.95,15.54-4.73,75.86-4.73,75.86,0,0,14.93-5.97,23.08-11.95s10.86-7.6,30.14-30.68c19.28-23.08,34.49-52.68,38.02-86.62,3.53-33.94-9.78-54.95-9.78-54.95,0,0-43.28,43.15-62.46,71.78-7.78,11.62-11.33,21.01-14.28,36.56Z" style="fill: #8c77b6; stroke-width: 0px;"/>
      <path id="quads-2" data-name="quads" d="m890.77,1332.03s16.73,17.2,27.19,41.6,23.01,65.54,28.59,96.92,17.97,112.68,18.92,166.62c.95,53.93-2.86,120.87-16.18,162.43-13.32,41.56-25.7,43.46-34.26,43.15-8.57-.32-38.39-22.84-47.27-98.03s-13.32-113.89-13.64-159.89,1.9-118.65,7.3-156.08c5.39-37.44,14.59-69.79,19.03-79.95,4.44-10.15,10.32-16.76,10.32-16.76Zm-76.12,424.57c-6.54,45.26-2.95,125.86,3.95,171.55s25.43,71.98,46.12,71.12c20.69-.86,49.57-18.53,53.45-65.52,3.88-46.98-26.72-55.6-54.74-128.02s-23.28-164.22-23.28-164.22c0,0-18.97,69.83-25.5,115.09Zm169.47-127.16c5.17,62.93-2.16,106.47-10.78,150.43s-34.91,65.95-31.9,121.55,22.41,38.79,41.81,2.59c19.4-36.21,28.02-116.38,31.9-179.74,3.88-63.36-6.03-127.59-12.5-156.47-6.47-28.88-26.29-43.53-26.29-43.53,0,0,2.59,42.24,7.76,105.17Z" style="fill: #8c77b6; stroke-width: 0px;"/>
      <path id="traps-2" data-name="traps" d="m838.29,488.98c-5.39-3.68-12.78-.47-13.73,5.99s-1.45,28.15-2.72,34.61c-2.66,13.53-6.43,24.12-9.88,31.54s-6.89,19.08,7.68,22.79,49.29-6.89,62.8-11.39,38.11-11.93,48.44-14.32c.1-.02.21-.05.31-.07,8.23-1.89,9.41-13.12,1.75-16.65-13.81-6.36-30.95-14.49-44.72-21.7-17.49-9.16-37.49-22.3-49.93-30.8Z" style="fill: #8c77b6; stroke-width: 0px;"/>
    </g>
  </g>
</svg>