<?xml version="1.0" encoding="UTF-8"?>
<svg id="body_back" xmlns="http://www.w3.org/2000/svg" viewBox="0 0 1500 3000">
  <g>
    <path id="silhouette" d="m88.6,1351.49c4.67-6.79,15.29-15.29,35.24-30.57,19.96-15.29,42.89-25.05,42.89-25.05,0,0,12.31-28.02,19.53-42.04,7.22-14.01,11.89-20.38,25.48-57.75,13.59-37.37,21.66-92.57,33.12-123.14s32.27-53.08,45.43-69.21c13.16-16.14,39.06-34.39,39.06-34.39,0,0,1.7-34.39,7.22-56.47,5.52-22.08,12.74-41.61,20.38-57.32,7.64-15.71,27.6-40.76,27.6-40.76,0,0-4.25-24.2-6.37-56.9s-1.7-92.57,27.18-139.7c28.87-47.13,69.64-59.45,116.34-78.98,46.71-19.53,122.71-50.53,137.15-79.83,14.44-29.3-1.7-65.82-9.77-84.92-8.07-19.11-7.64-25.48-7.64-25.48,0,0-25.05-28.45-29.3-39.91s-5.52-34.39,2.97-51.38c8.49-16.98,4.67-20.38,4.67-45.86s5.52-46.71,45.86-78.98,84.35-30.15,84.35-30.15v1429.19l-14.45.49s-.49,123.24-11.34,177.47c-10.85,54.23-10.35,72.96-12.32,113.38-1.97,40.42-6.9,86.02-10.35,146.17-3.45,60.14-24.16,131.13-35.49,149.37-11.34,18.24-7.39,26.13-2.46,46.34,4.93,20.21,19.23,78.88,22.18,125.71s2.46,110.43-19.72,172.54c-22.18,62.11-16.76,69.51-17.25,80.85-.49,11.34-3.45,36.97-2.96,114.86.49,77.89,9.37,132.61,11.83,168.6,2.46,35.99-3.94,55.71-18.73,63.1-14.79,7.39-49.79,5.42-84.3-5.42-34.51-10.85-53.24-7.89-92.68-13.8-39.44-5.92-54.72-17.75-54.72-28.1s17.25-21.2,40.42-33.52c23.17-12.32,64.09-31.06,77.4-42.89s19.72-25.14,14.3-79.86c-5.42-54.72-13.31-104.51-30.07-158.74-16.76-54.23-34.02-158.74-39.44-229.23-5.42-70.5,14.88-172.98,22.44-211.06,7.56-38.08,23.55-90.12,14.83-141.29s-21.22-77.33-28.2-121.52c-6.98-44.19-9.88-109.89-10.18-155.83-.29-45.93,4.94-98.84,17.44-150.3,12.5-51.46,32.27-115.71,42.15-148.27,9.88-32.56,11.92-62.8,12.5-88.09s-1.16-42.44-6.69-64.54c-5.52-22.09-5.81-61.05,6.98-96.52s15.99-69.48,14.54-85.76c-1.45-16.28-19.07-38.17-34.82-61.98-15.75-23.8-28-54.43-28-54.43,0,0-3.5,9.45-7.53,20.48-4.03,11.03-12.43,22.75-25.73,36.75s-23.5,29.4-23.5,29.4c0,0,3.27,19.21-3.68,59.28s-36.79,83.4-62.55,105.89c-25.76,22.49-43.34,40.92-72.35,72.55-29.01,31.63-56.9,90.78-56.9,90.78,0,0,2.06,3.74.75,28.26-1.31,24.52-16.1,66.44-27.33,92.65-11.23,26.2-58.4,29.57-90.4,16.47s-27.7-29.76-26.39-46.42c1.31-16.66,26.76-66.07,26.76-66.07,0,0-8.05,4.87-14.6,8.98-6.55,4.12-13.66,8.24-19.65,4.3-5.99-3.93-5.81-14.64-1.14-21.43Zm283.86-494.71c-15.27,29.5-22.51,48.65-25.1,77.12-2.59,28.47-6.47,35.75-8.28,53.6-1.81,17.86-1.81,34.9-1.81,34.9,0,0,29.24-13.97,38.04-48.91,8.8-34.93,9.8-37.71,15.86-43.73.56-.56,1.16-1.11,1.76-1.63,5.48-4.77,8.91-11.45,9.34-18.7.73-12.35,2.98-32.8,9.78-55.74,14.13-47.71,24.32-62.11,24.32-62.11,0,0-48.65,35.71-63.92,65.21Zm364.73-471.76c-3.99-2.3-7.21-1.23-10.28,7.52-3.07,8.75-8.06,31.62-25.1,54.95-17.04,23.33-25.16,34.92-54.04,53.87-28.88,18.95-50.85,29.79-70.4,38.21-7.28,3.13-15.87,7.12-23.78,10.88-12.91,6.14-13.78,24.13-1.54,31.53,5.94,3.59,13.11,7.21,21.63,10.41,31.84,11.94,50.42,31.62,54.18,61.03,3.76,29.41,8.18,62.14,7.96,104.59,0,0-.59,56.65,17.65,105.47,18.23,48.82,31.21,72.93,60.87,105.68,25.54,28.21,26.75,22.85,26.59,20.82-.04-.57-.09-1.14-.09-1.71v-341.96s1.55-47.9-14.21-63.96c-15.76-16.07-23.48-21.94-24.1-26.88-.62-4.94,4.02-7.73,19.47-19.47,15.45-11.74,18.62-28.43,18.89-48.21.27-19.78,0-93.41,0-93.41,0,0,.32-7.06-3.67-9.36Zm-151.63,327.93c-4.8,3.54-9.87,6.86-14.84,9.42-19.88,10.25-54.35,17.7-62.42,22.67-8.07,4.97,9.01,29.5,43.79,37.89,6.17,1.49,12.16,2.28,17.84,2.58,25.4,1.34,46.53-19.41,46.15-44.84,0-.2,0-.4,0-.6-.06-4.09-.27-8.63-.56-13.26-.94-14.87-17.94-22.69-29.94-13.86Zm93.55,384.81c-6.01,3.49-12.95,7.03-20.09,10.42-28.47,13.51-46.41,42.38-45.76,73.88,0,.29.01.58.02.87,0,.48.01.96.01,1.45.11,25.84,18.09,47.98,43.22,54.02,6.78,1.63,13.97,3.87,21.36,6.91,1.1.45,2.2.93,3.28,1.42,27.41,12.56,58.65-7.28,58.83-37.43l1.01-168.38s-35.16,41.3-61.87,56.83Zm61.87,373.14c.17-21.7-.17-110.27,0-130.19.17-19.93-10.57-31.44-23.42-45.61-12.84-14.17-32.77-24.36-32.77-24.36-34.54-21.26-71.3-19.04-93-6.64s-38.08,34.54-37.2,98.31c.89,63.77,1.26,115.72,20.3,144.74,19.04,29.02,41.24,34.75,70.03,35.21,31.17.51,53.41-10.5,72.01-23.34,18.6-12.84,23.87-26.42,24.04-48.12Zm-22.31,176.81c2.04-22.47,2.9-49.85,3.26-71.15.24-14.37-13.99-24.41-27.51-19.52-.16.06-.32.11-.48.17-8.56,3.04-16.21,4.8-21.5,5.78-4.41.82-7.61,4.66-7.61,9.15.02,14.17.91,46.02,7.37,86.72,8.83,55.63,28.6,107.64,28.6,107.64,0,0,13.89-75.08,17.87-118.79Zm-29.63,293.15c3.8-81.62,8.57-129.95,9.84-141.88.2-1.88-.18-3.78-1.09-5.44-5.65-10.37-26.86-51.52-35.24-99.91-9.71-56.07-11.92-75.49-12.36-92.71-.24-9.17-.15-18.2-.02-24.64.1-5.03-3.79-9.22-8.81-9.49-2.93-.16-6.4-.43-10.16-.9-3.16-.4-5.69-.82-7.69-1.22-4.42-.89-8.88,1.45-10.52,5.65-4.01,10.27-10.34,33.97-15.59,87.33-8.4,85.37-5.33,163.78-3.56,221.18,1.77,57.39-5.01,99.13,29.42,155.2,34.44,56.07,27.18,79.91,27.18,79.91,0,0,34.19-78.14,38.61-173.06Zm-102.59,234.83c10.11,151.72,10.24,160.06,10.97,194.88.73,34.82-2.9,56.58,14.87,87.78s20.2,36.56,28.54,5.01c8.34-31.56,33.37-108.81,21.04-185.35-12.33-76.53-22.52-160.98-33.51-188.91-7.29-18.51-17.62-43.66-27.54-57.8-5.25-7.49-16.94-4.4-17.76,4.71-1.62,17.88-2.15,56.47,3.39,139.69Zm-97.48,81.35c0,45.7,3.94,113.99,14.82,154.25,10.88,40.26,16.38,53.59,36.69,58.3s39.39-18.82,35.76-85.2c-3.63-66.38-15.79-160.29-16.15-225.22-.2-36.25,1.96-74.59,2.46-101.75.31-16.7-21.08-23.89-30.91-10.38-7.83,10.76-15.83,25.17-21.63,43.87-15.96,51.51-21.04,120.42-21.04,166.12Zm26.77-353.2c10.03,42.55,8.4,47.43,8.67,74.26.27,26.83-5.96,60.98-5.96,60.98,0,0,29.27-25.48,43.63-72.9,14.36-47.43,6.73-90.08,4.56-135.88-2.17-45.8,3.08-118.14,7.14-158.52,4.07-40.38,12.15-67.68,16.21-85.3,2.26-9.81,4.3-17.85,5.67-23.06.99-3.76-.48-7.73-3.66-9.97-1.54-1.09-3.27-2.38-4.99-3.83-.76-.64-1.53-1.31-2.3-2.01-4.57-4.12-11.8-2.77-14.56,2.73-10.93,21.8-34.49,70.38-44.12,102.54-12.74,42.55-29.27,89.71-30.08,132.53s9.76,75.89,19.78,118.43Zm25.26-437.4c-3.1-30.39.65-62.6-6.6-54.22-10.45,12.09-29.86,100.03-32.77,116.68-5.72,32.67-15.8,91.91-18.14,124.25-2.39,32.98,0,91.17,0,91.17,0,0,9.38-56.64,33.23-118.7,19.04-49.53,37.11-83.21,43.63-94.78,1.47-2.61,1.6-5.77.33-8.48-1.13-2.42-6.43-8.7-9.95-16.61s-6.62-8.93-9.72-39.31Zm6.85-283.3c1.55,14.29,11.28,31.06,11.39,47.53.11,16.46-.39,26.19-.39,26.19,0,0,8.01-10.29,15.78-15.57,7.77-5.28,18.81-8.35,19.74-33.51.93-25.16-.86-52.28-5.83-78.37-4.97-26.09-16.77-61.81-16.77-61.81,0,0-3.73,32.93-15.53,58.4-11.8,25.47-9.94,42.87-8.39,57.16Zm-51.96-361.39c3.42,32.3,5.9,61.18,22.36,104.97,16.46,43.79,25.58,57.09,39.4,76.42,12.92,18.08,47.37,106.15,47.37,106.15,0,0,4.23.35,11.37-1.2,7.14-1.55,26.71-10.56,65.22-34.47,10.7-6.64,20.04-14.1,27.95-21.41,18.29-16.9,18.21-45.85.02-62.86-.72-.67-1.45-1.36-2.2-2.06-27.33-25.78-37.58-45.34-61.49-91.93-9.47-18.44-15.87-38.44-20.14-55.87-5.61-22.86-26.09-38.87-49.63-38.7-7.26.05-15.07-.67-23.08-2.64-34.16-8.39-53.11-32.3-53.11-32.3,0,0-7.45,23.6-4.04,55.9Zm77.33-118.63c31.06-19.88,33.54-33.85,34.47-48.14.93-14.29-21.12-40.37-36.02-44.41s-33.85-16.77-44.1-26.09c-9.22-8.39-25.49-7.71-28.65-7.5-.4.03-.81.04-1.21.05-22.35.4-55.07,20.45-69.52,47.51-14.6,27.33-29.5,60.25-30.12,102.48-.16,11.04.67,21,1.99,29.69,2.69,17.66,23.82,25.39,37.27,13.64,12.24-10.69,27.71-22.57,43.97-30.9,36.96-18.94,60.87-16.46,91.93-36.34Zm-100.08,226.12c13.2-18.63,16.56-23.03,11.9-63.4-4.66-40.37-5.69-43.47-4.92-67.8,0-.24.02-.49.02-.73.56-15.61-20.21-21.43-27.8-7.78-4.23,7.6-8.71,16.94-13.37,28.43-26.65,65.73-22.32,101.7-21.38,115.67s-.1,24.58-12.26,45.29c-12.16,20.7-24.58,46.58,0,26.4,24.58-20.18,54.6-57.45,67.8-76.08Zm-165.39,273.48s38.39-31.99,68.03-66.34c29.64-34.35,32.95-49.2,38.62-72.38,5.06-20.72,4.71-46.14,4.71-46.14,0,0-46.03,26.58-68.26,69.35-22.23,42.77-26.6,46.47-35.36,72.41-8.76,25.93-7.75,43.11-7.75,43.11Zm-111.4,94.19c2.18,2.41,4.73,4.69,7.56,6.22,3.25,1.77,7.49,3.08,11.6,4.04,8.18,1.91,16.63-1.76,20.81-9.04,7.01-12.24,18.63-32.27,29.27-49.33,16.64-26.7,27.04-39.87,27.39-62.41.35-22.54,19.07-64.49,28.43-94.66,9.36-30.16-3.84-88.02-3.84-88.02,0,0-23.6,10.84-52.17,75.25-14.78,33.33-9.85,43.6-33.76,103.54s-15.49,46.14-27.62,71.73c-4.69,9.91-8.07,16.84-10.45,21.61-3.46,6.93-2.42,15.31,2.78,21.06Z" style="fill: #454758; stroke-width: 0px;"/>
    <g>
      <path id="traps" d="m553.57,550.44c-12.91,6.14-13.78,24.13-1.54,31.53,5.94,3.59,13.11,7.21,21.63,10.41,31.84,11.94,50.42,31.62,54.18,61.03s8.18,62.14,7.96,104.59c0,0-.59,56.65,17.65,105.47,18.23,48.82,31.21,72.93,60.87,105.68,25.54,28.21,26.75,22.85,26.59,20.82-.04-.57-.09-1.14-.09-1.71v-341.96s1.55-47.9-14.21-63.96c-15.76-16.07-23.48-21.94-24.1-26.88s4.02-7.73,19.47-19.47,18.62-28.43,18.89-48.21,0-93.41,0-93.41c0,0,.32-7.06-3.67-9.36s-7.21-1.23-10.28,7.52-8.06,31.62-25.1,54.95-25.16,34.92-54.04,53.87-50.85,29.79-70.4,38.21c-7.28,3.13-15.87,7.12-23.78,10.88Z" style="fill: #8c77b6; stroke-width: 0px;"/>
      <path id="obliques" d="m571.76,1067.58s-3.73,32.93-15.53,58.4c-11.8,25.47-9.94,42.87-8.39,57.16,1.55,14.29,11.28,31.06,11.39,47.53s-.39,26.19-.39,26.19c0,0,8.01-10.29,15.78-15.57,7.77-5.28,18.81-8.35,19.74-33.51s-.86-52.28-5.83-78.37-16.77-61.81-16.77-61.81Z" style="fill: #8c77b6; stroke-width: 0px;"/>
      <path id="lowerBack" d="m740.97,1040.92s-35.16,41.3-61.87,56.83c-6.01,3.49-12.95,7.03-20.09,10.42-28.47,13.51-46.41,42.38-45.76,73.88,0,.29.01.58.02.87,0,.48.01.96.01,1.45.11,25.84,18.09,47.98,43.22,54.02,6.78,1.63,13.97,3.87,21.36,6.91,1.1.45,2.2.93,3.28,1.42,27.41,12.56,58.65-7.28,58.83-37.43l1.01-168.38Z" style="fill: #8c77b6; stroke-width: 0px;"/>
      <path id="forearms" d="m419.09,1017.85s-46.03,26.58-68.25,69.35c-22.23,42.77-26.6,46.47-35.36,72.41-8.76,25.93-7.75,43.11-7.75,43.11,0,0,38.39-31.99,68.03-66.34,29.64-34.35,32.95-49.2,38.62-72.38,5.06-20.72,4.71-46.14,4.71-46.14Zm-97.71,73.87c-9.36,30.16-28.08,72.12-28.43,94.66-.35,22.54-10.75,35.71-27.39,62.41-10.63,17.06-22.26,37.09-29.27,49.33-4.17,7.29-12.63,10.95-20.81,9.04-4.11-.96-8.35-2.27-11.6-4.04-2.83-1.54-5.39-3.82-7.56-6.22-5.19-5.74-6.23-14.13-2.78-21.06,2.38-4.77,5.76-11.7,10.45-21.61,12.12-25.59,3.7-11.79,27.62-71.73,23.91-59.95,18.98-70.21,33.76-103.54,28.57-64.42,52.17-75.25,52.17-75.25,0,0,13.2,57.85,3.84,88.02Z" style="fill: #8c77b6; stroke-width: 0px;"/>
      <path id="calves" d="m600.81,2031.29c-5.25-7.49-16.94-4.4-17.76,4.71-1.62,17.88-2.15,56.47,3.39,139.69,10.11,151.72,10.24,160.06,10.97,194.88s-2.9,56.58,14.87,87.78c17.77,31.19,20.2,36.56,28.54,5.01,8.34-31.56,33.37-108.81,21.04-185.35-12.33-76.53-22.52-160.98-33.51-188.9-7.29-18.51-17.62-43.66-27.54-57.8Zm-40.74,127.88c.36,64.93,12.52,158.84,16.15,225.22s-15.45,89.91-35.76,85.2c-20.31-4.72-25.81-18.04-36.69-58.3-10.88-40.26-14.82-108.55-14.82-154.25s5.08-114.62,21.04-166.12c5.8-18.7,13.79-33.11,21.63-43.87,9.83-13.5,31.22-6.32,30.91,10.38-.5,27.17-2.67,65.5-2.46,101.75Z" style="fill: #8c77b6; stroke-width: 0px;"/>
      <path id="hamstrings" d="m560.33,1530.83c1.47-2.61,1.6-5.77.33-8.48-1.13-2.42-6.43-8.7-9.95-16.61-3.52-7.91-6.62-8.93-9.72-39.31-3.1-30.39.65-62.6-6.6-54.22-10.45,12.09-29.86,100.03-32.77,116.68-5.72,32.67-15.8,91.91-18.14,124.25-2.39,32.98,0,91.17,0,91.17,0,0,9.38-56.64,33.23-118.7,19.04-49.53,37.11-83.21,43.63-94.78Zm29.66,55.64c-4.07,17.62-12.15,44.92-16.21,85.3-4.07,40.38-9.31,112.72-7.14,158.52,2.17,45.8,9.8,88.45-4.56,135.88-14.36,47.43-43.63,72.9-43.63,72.9,0,0,6.23-34.15,5.96-60.98s1.36-31.71-8.67-74.26c-10.03-42.55-20.6-75.61-19.78-118.43.81-42.82,17.35-89.98,30.08-132.53,9.63-32.16,33.19-80.73,44.12-102.54,2.76-5.5,9.99-6.84,14.56-2.73.77.69,1.54,1.37,2.3,2.01,1.72,1.45,3.45,2.75,4.99,3.83,3.18,2.24,4.64,6.21,3.66,9.97-1.36,5.2-3.4,13.25-5.67,23.06Zm60.19,14.43c.44,17.22,2.65,36.64,12.36,92.71,8.38,48.39,29.59,89.54,35.24,99.91.91,1.66,1.28,3.56,1.09,5.44-1.26,11.94-6.04,60.26-9.84,141.88-4.41,94.92-38.61,173.06-38.61,173.06,0,0,7.26-23.84-27.18-79.91-34.44-56.07-27.66-97.81-29.42-155.2-1.77-57.39-4.84-135.8,3.56-221.18,5.25-53.36,11.58-77.06,15.59-87.33,1.64-4.2,6.1-6.55,10.52-5.65,2,.4,4.52.83,7.69,1.22,3.77.47,7.24.75,10.16.9,5.02.27,8.91,4.47,8.81,9.49-.13,6.44-.22,15.47.02,24.64Zm68.48,46.8c-3.97,43.71-17.87,118.79-17.87,118.79,0,0-19.77-52.01-28.6-107.64-6.46-40.7-7.36-72.56-7.37-86.72,0-4.49,3.2-8.32,7.61-9.15,5.29-.98,12.94-2.75,21.5-5.78.16-.06.32-.11.48-.17,13.52-4.89,27.75,5.15,27.51,19.52-.36,21.3-1.22,48.68-3.26,71.15Z" style="fill: #8c77b6; stroke-width: 0px;"/>
      <path id="triceps" d="m480.13,797.31c.56-15.61-20.21-21.43-27.8-7.78-4.23,7.6-8.71,16.94-13.37,28.43-26.65,65.73-22.32,101.7-21.38,115.67.94,13.97-.1,24.58-12.26,45.29-12.16,20.7-24.58,46.58,0,26.4,24.58-20.18,54.6-57.45,67.8-76.08,13.2-18.63,16.56-23.03,11.9-63.4s-5.69-43.47-4.92-67.8c0-.24.02-.49.02-.73Zm-68.08,56.36c-6.8,22.95-9.05,43.39-9.78,55.74-.43,7.25-3.87,13.93-9.34,18.7-.6.53-1.2,1.07-1.76,1.63-6.06,6.02-7.07,8.8-15.86,43.73s-38.04,48.91-38.04,48.91c0,0,0-17.04,1.81-34.9,1.81-17.86,5.69-25.14,8.28-53.6,2.59-28.47,9.83-47.61,25.1-77.12,15.27-29.5,63.92-65.21,63.92-65.21,0,0-10.19,14.39-24.32,62.11Z" style="fill: #8c77b6; stroke-width: 0px;"/>
      <path id="shoulders" d="m498.9,576.98c-.4.03-.81.04-1.21.05-22.35.4-55.07,20.45-69.52,47.51-14.6,27.33-29.5,60.25-30.12,102.48-.16,11.04.67,21,1.99,29.69,2.69,17.66,23.82,25.39,37.27,13.64,12.24-10.69,27.71-22.57,43.97-30.9,36.96-18.94,60.87-16.46,91.93-36.34s33.54-33.85,34.47-48.14-21.12-40.37-36.02-44.41c-14.91-4.04-33.85-16.77-44.1-26.09-9.22-8.39-25.49-7.71-28.65-7.5Z" style="fill: #8c77b6; stroke-width: 0px;"/>
      <path id="lats" d="m707.36,987.27c-27.33-25.78-37.58-45.34-61.49-91.93-9.47-18.44-15.87-38.44-20.14-55.87-5.61-22.86-26.09-38.87-49.63-38.7-7.26.05-15.07-.67-23.08-2.64-34.16-8.39-53.11-32.3-53.11-32.3,0,0-7.45,23.6-4.04,55.9,3.42,32.3,5.9,61.18,22.36,104.97,16.46,43.79,25.58,57.09,39.4,76.42,12.92,18.08,47.37,106.15,47.37,106.15,0,0,4.23.35,11.37-1.2,7.14-1.55,26.71-10.56,65.22-34.47,10.7-6.64,20.04-14.11,27.95-21.41,18.29-16.9,18.21-45.85.02-62.86-.72-.67-1.45-1.36-2.2-2.06Zm-121.81-274.33c12-8.84,29-1.02,29.94,13.86.29,4.63.5,9.17.56,13.26,0,.2,0,.4,0,.6.38,25.43-20.74,46.18-46.15,44.84-5.68-.3-11.67-1.09-17.84-2.58-34.78-8.39-51.86-32.92-43.79-37.89s42.55-12.42,62.42-22.67c4.97-2.56,10.03-5.88,14.84-9.42Z" style="fill: #8c77b6; stroke-width: 0px;"/>
      <path id="glutes" d="m684.79,1270.73c-34.54-21.26-71.3-19.04-93-6.64-21.7,12.4-38.08,34.54-37.2,98.31s1.26,115.72,20.3,144.74c19.04,29.02,41.24,34.75,70.03,35.21,31.17.51,53.41-10.5,72.01-23.34,18.6-12.84,23.87-26.42,24.04-48.12s-.17-110.27,0-130.19-10.57-31.44-23.42-45.61c-12.84-14.17-32.77-24.36-32.77-24.36Z" style="fill: #8c77b6; stroke-width: 0px;"/>
    </g>
  </g>
  <g>
    <path id="silhouette-2" data-name="silhouette" d="m1411.4,1351.49c-4.67-6.79-15.29-15.29-35.24-30.57-19.96-15.29-42.89-25.05-42.89-25.05,0,0-12.31-28.02-19.53-42.04-7.22-14.01-11.89-20.38-25.48-57.75-13.59-37.37-21.66-92.57-33.12-123.14s-32.27-53.08-45.43-69.21c-13.16-16.14-39.06-34.39-39.06-34.39,0,0-1.7-34.39-7.22-56.47-5.52-22.08-12.74-41.61-20.38-57.32-7.64-15.71-27.6-40.76-27.6-40.76,0,0,4.25-24.2,6.37-56.9s1.7-92.57-27.18-139.7c-28.87-47.13-69.64-59.45-116.34-78.98-46.71-19.53-122.71-50.53-137.15-79.83-14.44-29.3,1.7-65.82,9.77-84.92,8.07-19.11,7.64-25.48,7.64-25.48,0,0,25.05-28.45,29.3-39.91s5.52-34.39-2.97-51.38c-8.49-16.98-4.67-20.38-4.67-45.86s-5.52-46.71-45.86-78.98-84.35-30.15-84.35-30.15v1429.19l14.45.49s.49,123.24,11.34,177.47c10.85,54.23,10.35,72.96,12.32,113.38,1.97,40.42,6.9,86.02,10.35,146.17,3.45,60.14,24.16,131.13,35.49,149.37,11.34,18.24,7.39,26.13,2.46,46.34-4.93,20.21-19.23,78.88-22.18,125.71s-2.46,110.43,19.72,172.54c22.18,62.11,16.76,69.51,17.25,80.85.49,11.34,3.45,36.97,2.96,114.86-.49,77.89-9.37,132.61-11.83,168.6-2.46,35.99,3.94,55.71,18.73,63.1,14.79,7.39,49.79,5.42,84.3-5.42,34.51-10.85,53.24-7.89,92.68-13.8,39.44-5.92,54.72-17.75,54.72-28.1s-17.25-21.2-40.42-33.52c-23.17-12.32-64.09-31.06-77.4-42.89s-19.72-25.14-14.3-79.86c5.42-54.72,13.31-104.51,30.07-158.74,16.76-54.23,34.02-158.74,39.44-229.23,5.42-70.5-14.88-172.98-22.44-211.06-7.56-38.08-23.55-90.12-14.83-141.29s21.22-77.33,28.2-121.52c6.98-44.19,9.88-109.89,10.18-155.83.29-45.93-4.94-98.84-17.44-150.3-12.5-51.46-32.27-115.71-42.15-148.27-9.88-32.56-11.92-62.8-12.5-88.09s1.16-42.44,6.69-64.54c5.52-22.09,5.81-61.05-6.98-96.52s-15.99-69.48-14.54-85.76c1.45-16.28,19.07-38.17,34.82-61.98,15.75-23.8,28-54.43,28-54.43,0,0,3.5,9.45,7.53,20.48,4.03,11.03,12.43,22.75,25.73,36.75s23.5,29.4,23.5,29.4c0,0-3.27,19.21,3.68,59.28s36.79,83.4,62.55,105.89c25.76,22.49,43.34,40.92,72.35,72.55,29.01,31.63,56.9,90.78,56.9,90.78,0,0-2.06,3.74-.75,28.26,1.31,24.52,16.1,66.44,27.33,92.65,11.23,26.2,58.4,29.57,90.4,16.47s27.7-29.76,26.39-46.42c-1.31-16.66-26.76-66.07-26.76-66.07,0,0,8.05,4.87,14.6,8.98,6.55,4.12,13.66,8.24,19.65,4.3,5.99-3.93,5.81-14.64,1.14-21.43Zm-283.86-494.71c15.27,29.5,22.51,48.65,25.1,77.12,2.59,28.47,6.47,35.75,8.28,53.6,1.81,17.86,1.81,34.9,1.81,34.9,0,0-29.24-13.97-38.04-48.91-8.8-34.93-9.8-37.71-15.86-43.73-.56-.56-1.16-1.11-1.76-1.63-5.48-4.77-8.91-11.45-9.34-18.7-.73-12.35-2.98-32.8-9.78-55.74-14.13-47.71-24.32-62.11-24.32-62.11,0,0,48.65,35.71,63.92,65.21Zm-364.73-471.76c3.99-2.3,7.21-1.23,10.28,7.52,3.07,8.75,8.06,31.62,25.1,54.95,17.04,23.33,25.16,34.92,54.04,53.87,28.88,18.95,50.85,29.79,70.4,38.21,7.28,3.13,15.87,7.12,23.78,10.88,12.91,6.14,13.78,24.13,1.54,31.53-5.94,3.59-13.11,7.21-21.63,10.41-31.84,11.94-50.42,31.62-54.18,61.03-3.76,29.41-8.18,62.14-7.96,104.59,0,0,.59,56.65-17.65,105.47-18.23,48.82-31.21,72.93-60.87,105.68-25.54,28.21-26.75,22.85-26.59,20.82.04-.57.09-1.14.09-1.71v-341.96s-1.55-47.9,14.21-63.96c15.76-16.07,23.48-21.94,24.1-26.88.62-4.94-4.02-7.73-19.47-19.47-15.45-11.74-18.62-28.43-18.89-48.21-.27-19.78,0-93.41,0-93.41,0,0-.32-7.06,3.67-9.36Zm151.63,327.93c4.8,3.54,9.87,6.86,14.84,9.42,19.88,10.25,54.35,17.7,62.42,22.67,8.07,4.97-9.01,29.5-43.79,37.89-6.17,1.49-12.16,2.28-17.84,2.58-25.4,1.34-46.53-19.41-46.15-44.84,0-.2,0-.4,0-.6.06-4.09.27-8.63.56-13.26.94-14.87,17.94-22.69,29.94-13.86Zm-93.55,384.81c6.01,3.49,12.95,7.03,20.09,10.42,28.47,13.51,46.41,42.38,45.76,73.88,0,.29-.01.58-.02.87,0,.48-.01.96-.01,1.45-.11,25.84-18.09,47.98-43.22,54.02-6.78,1.63-13.97,3.87-21.36,6.91-1.1.45-2.2.93-3.28,1.42-27.41,12.56-58.65-7.28-58.83-37.43l-1.01-168.38s35.16,41.3,61.87,56.83Zm-61.87,373.14c-.17-21.7.17-110.27,0-130.19-.17-19.93,10.57-31.44,23.42-45.61,12.84-14.17,32.77-24.36,32.77-24.36,34.54-21.26,71.3-19.04,93-6.64s38.08,34.54,37.2,98.31c-.89,63.77-1.26,115.72-20.3,144.74-19.04,29.02-41.24,34.75-70.03,35.21-31.17.51-53.41-10.5-72.01-23.34-18.6-12.84-23.87-26.42-24.04-48.12Zm22.31,176.81c-2.04-22.47-2.9-49.85-3.26-71.15-.24-14.37,13.99-24.41,27.51-19.52.16.06.32.11.48.17,8.56,3.04,16.21,4.8,21.5,5.78,4.41.82,7.61,4.66,7.61,9.15-.02,14.17-.91,46.02-7.37,86.72-8.83,55.63-28.6,107.64-28.6,107.64,0,0-13.89-75.08-17.87-118.79Zm29.63,293.15c-3.8-81.62-8.57-129.95-9.84-141.88-.2-1.88.18-3.78,1.09-5.44,5.65-10.37,26.86-51.52,35.24-99.91,9.71-56.07,11.92-75.49,12.36-92.71.24-9.17.15-18.2.02-24.64-.1-5.03,3.79-9.22,8.81-9.49,2.93-.16,6.4-.43,10.16-.9,3.16-.4,5.69-.82,7.69-1.22,4.42-.89,8.88,1.45,10.52,5.65,4.01,10.27,10.34,33.97,15.59,87.33,8.4,85.37,5.33,163.78,3.56,221.18-1.77,57.39,5.01,99.13-29.42,155.2-34.44,56.07-27.18,79.91-27.18,79.91,0,0-34.19-78.14-38.61-173.06Zm102.59,234.83c-10.11,151.72-10.24,160.06-10.97,194.88-.73,34.82,2.9,56.58-14.87,87.78s-20.2,36.56-28.54,5.01c-8.34-31.56-33.37-108.81-21.04-185.35,12.33-76.53,22.52-160.98,33.51-188.91,7.29-18.51,17.62-43.66,27.54-57.8,5.25-7.49,16.94-4.4,17.76,4.71,1.62,17.88,2.15,56.47-3.39,139.69Zm97.48,81.35c0,45.7-3.94,113.99-14.82,154.25-10.88,40.26-16.38,53.59-36.69,58.3s-39.39-18.82-35.76-85.2c3.63-66.38,15.79-160.29,16.15-225.22.2-36.25-1.96-74.59-2.46-101.75-.31-16.7,21.08-23.89,30.91-10.38,7.83,10.76,15.83,25.17,21.63,43.87,15.96,51.51,21.04,120.42,21.04,166.12Zm-26.77-353.2c-10.03,42.55-8.4,47.43-8.67,74.26-.27,26.83,5.96,60.98,5.96,60.98,0,0-29.27-25.48-43.63-72.9-14.36-47.43-6.73-90.08-4.56-135.88,2.17-45.8-3.08-118.14-7.14-158.52-4.07-40.38-12.15-67.68-16.21-85.3-2.26-9.81-4.3-17.85-5.67-23.06-.99-3.76.48-7.73,3.66-9.97,1.54-1.09,3.27-2.38,4.99-3.83.76-.64,1.53-1.31,2.3-2.01,4.57-4.12,11.8-2.77,14.56,2.73,10.93,21.8,34.49,70.38,44.12,102.54,12.74,42.55,29.27,89.71,30.08,132.53s-9.76,75.89-19.78,118.43Zm-25.26-437.4c3.1-30.39-.65-62.6,6.6-54.22,10.45,12.09,29.86,100.03,32.77,116.68,5.72,32.67,15.8,91.91,18.14,124.25,2.39,32.98,0,91.17,0,91.17,0,0-9.38-56.64-33.23-118.7-19.04-49.53-37.11-83.21-43.63-94.78-1.47-2.61-1.6-5.77-.33-8.48,1.13-2.42,6.43-8.7,9.95-16.61s6.62-8.93,9.72-39.31Zm-6.85-283.3c-1.55,14.29-11.28,31.06-11.39,47.53-.11,16.46.39,26.19.39,26.19,0,0-8.01-10.29-15.78-15.57-7.77-5.28-18.81-8.35-19.74-33.51-.93-25.16.86-52.28,5.83-78.37,4.97-26.09,16.77-61.81,16.77-61.81,0,0,3.73,32.93,15.53,58.4,11.8,25.47,9.94,42.87,8.39,57.16Zm51.96-361.39c-3.42,32.3-5.9,61.18-22.36,104.97-16.46,43.79-25.58,57.09-39.4,76.42-12.92,18.08-47.37,106.15-47.37,106.15,0,0-4.23.35-11.37-1.2-7.14-1.55-26.71-10.56-65.22-34.47-10.7-6.64-20.04-14.1-27.95-21.41-18.29-16.9-18.21-45.85-.02-62.86.72-.67,1.45-1.36,2.2-2.06,27.33-25.78,37.58-45.34,61.49-91.93,9.47-18.44,15.87-38.44,20.14-55.87,5.61-22.86,26.09-38.87,49.63-38.7,7.26.05,15.07-.67,23.08-2.64,34.16-8.39,53.11-32.3,53.11-32.3,0,0,7.45,23.6,4.04,55.9Zm-77.33-118.63c-31.06-19.88-33.54-33.85-34.47-48.14-.93-14.29,21.12-40.37,36.02-44.41s33.85-16.77,44.1-26.09c9.22-8.39,25.49-7.71,28.65-7.5.4.03.81.04,1.21.05,22.35.4,55.07,20.45,69.52,47.51,14.6,27.33,29.5,60.25,30.12,102.48.16,11.04-.67,21-1.99,29.69-2.69,17.66-23.82,25.39-37.27,13.64-12.24-10.69-27.71-22.57-43.97-30.9-36.96-18.94-60.87-16.46-91.93-36.34Zm100.08,226.12c-13.2-18.63-16.56-23.03-11.9-63.4,4.66-40.37,5.69-43.47,4.92-67.8,0-.24-.02-.49-.02-.73-.56-15.61,20.21-21.43,27.8-7.78,4.23,7.6,8.71,16.94,13.37,28.43,26.65,65.73,22.32,101.7,21.38,115.67s.1,24.58,12.26,45.29c12.16,20.7,24.58,46.58,0,26.4-24.58-20.18-54.6-57.45-67.8-76.08Zm165.39,273.48s-38.39-31.99-68.03-66.34c-29.64-34.35-32.95-49.2-38.62-72.38-5.06-20.72-4.71-46.14-4.71-46.14,0,0,46.03,26.58,68.26,69.35,22.23,42.77,26.6,46.47,35.36,72.41,8.76,25.93,7.75,43.11,7.75,43.11Zm111.4,94.19c-2.18,2.41-4.73,4.69-7.56,6.22-3.25,1.77-7.49,3.08-11.6,4.04-8.18,1.91-16.63-1.76-20.81-9.04-7.01-12.24-18.63-32.27-29.27-49.33-16.64-26.7-27.04-39.87-27.39-62.41-.35-22.54-19.07-64.49-28.43-94.66-9.36-30.16,3.84-88.02,3.84-88.02,0,0,23.6,10.84,52.17,75.25,14.78,33.33,9.85,43.6,33.76,103.54s15.49,46.14,27.62,71.73c4.69,9.91,8.07,16.84,10.45,21.61,3.46,6.93,2.42,15.31-2.78,21.06Z" style="fill: #454758; stroke-width: 0px;"/>
    <g>
      <path id="traps-2" data-name="traps" d="m946.43,550.44c12.91,6.14,13.78,24.13,1.54,31.53-5.94,3.59-13.11,7.21-21.63,10.41-31.84,11.94-50.42,31.62-54.18,61.03s-8.18,62.14-7.96,104.59c0,0,.59,56.65-17.65,105.47-18.23,48.82-31.21,72.93-60.87,105.68-25.54,28.21-26.75,22.85-26.59,20.82.04-.57.09-1.14.09-1.71v-341.96s-1.55-47.9,14.21-63.96c15.76-16.07,23.48-21.94,24.1-26.88s-4.02-7.73-19.47-19.47-18.62-28.43-18.89-48.21,0-93.41,0-93.41c0,0-.32-7.06,3.67-9.36s7.21-1.23,10.28,7.52,8.06,31.62,25.1,54.95,25.16,34.92,54.04,53.87,50.85,29.79,70.4,38.21c7.28,3.13,15.87,7.12,23.78,10.88Z" style="fill: #8c77b6; stroke-width: 0px;"/>
      <path id="obliques-2" data-name="obliques" d="m928.24,1067.58s3.73,32.93,15.53,58.4c11.8,25.47,9.94,42.87,8.39,57.16-1.55,14.29-11.28,31.06-11.39,47.53s.39,26.19.39,26.19c0,0-8.01-10.29-15.78-15.57-7.77-5.28-18.81-8.35-19.74-33.51s.86-52.28,5.83-78.37,16.77-61.81,16.77-61.81Z" style="fill: #8c77b6; stroke-width: 0px;"/>
      <path id="lowerBack-2" data-name="lowerBack" d="m759.03,1040.92s35.16,41.3,61.87,56.83c6.01,3.49,12.95,7.03,20.09,10.42,28.47,13.51,46.41,42.38,45.76,73.88,0,.29-.01.58-.02.87,0,.48-.01.96-.01,1.45-.11,25.84-18.09,47.98-43.22,54.02-6.78,1.63-13.97,3.87-21.36,6.91-1.1.45-2.2.93-3.28,1.42-27.41,12.56-58.65-7.28-58.83-37.43l-1.01-168.38Z" style="fill: #8c77b6; stroke-width: 0px;"/>
      <path id="forearms-2" data-name="forearms" d="m1080.91,1017.85s46.03,26.58,68.25,69.35c22.23,42.77,26.6,46.47,35.36,72.41,8.76,25.93,7.75,43.11,7.75,43.11,0,0-38.39-31.99-68.03-66.34-29.64-34.35-32.95-49.2-38.62-72.38-5.06-20.72-4.71-46.14-4.71-46.14Zm97.71,73.87c9.36,30.16,28.08,72.12,28.43,94.66.35,22.54,10.75,35.71,27.39,62.41,10.63,17.06,22.26,37.09,29.27,49.33,4.17,7.29,12.63,10.95,20.81,9.04,4.11-.96,8.35-2.27,11.6-4.04,2.83-1.54,5.39-3.82,7.56-6.22,5.19-5.74,6.23-14.13,2.78-21.06-2.38-4.77-5.76-11.7-10.45-21.61-12.12-25.59-3.7-11.79-27.62-71.73-23.91-59.95-18.98-70.21-33.76-103.54-28.57-64.42-52.17-75.25-52.17-75.25,0,0-13.2,57.85-3.84,88.02Z" style="fill: #8c77b6; stroke-width: 0px;"/>
      <path id="calves-2" data-name="calves" d="m899.19,2031.29c5.25-7.49,16.94-4.4,17.76,4.71,1.62,17.88,2.15,56.47-3.39,139.69-10.11,151.72-10.24,160.06-10.97,194.88s2.9,56.58-14.87,87.78c-17.77,31.19-20.2,36.56-28.54,5.01-8.34-31.56-33.37-108.81-21.04-185.35,12.33-76.53,22.52-160.98,33.51-188.9,7.29-18.51,17.62-43.66,27.54-57.8Zm40.74,127.88c-.36,64.93-12.52,158.84-16.15,225.22s15.45,89.91,35.76,85.2c20.31-4.72,25.81-18.04,36.69-58.3,10.88-40.26,14.82-108.55,14.82-154.25s-5.08-114.62-21.04-166.12c-5.8-18.7-13.79-33.11-21.63-43.87-9.83-13.5-31.22-6.32-30.91,10.38.5,27.17,2.67,65.5,2.46,101.75Z" style="fill: #8c77b6; stroke-width: 0px;"/>
      <path id="hamstrings-2" data-name="hamstrings" d="m939.67,1530.83c-1.47-2.61-1.6-5.77-.33-8.48,1.13-2.42,6.43-8.7,9.95-16.61,3.52-7.91,6.62-8.93,9.72-39.31,3.1-30.39-.65-62.6,6.6-54.22,10.45,12.09,29.86,100.03,32.77,116.68,5.72,32.67,15.8,91.91,18.14,124.25,2.39,32.98,0,91.17,0,91.17,0,0-9.38-56.64-33.23-118.7-19.04-49.53-37.11-83.21-43.63-94.78Zm-29.66,55.64c4.07,17.62,12.15,44.92,16.21,85.3,4.07,40.38,9.31,112.72,7.14,158.52-2.17,45.8-9.8,88.45,4.56,135.88,14.36,47.43,43.63,72.9,43.63,72.9,0,0-6.23-34.15-5.96-60.98s-1.36-31.71,8.67-74.26c10.03-42.55,20.6-75.61,19.78-118.43-.81-42.82-17.35-89.98-30.08-132.53-9.63-32.16-33.19-80.73-44.12-102.54-2.76-5.5-9.99-6.84-14.56-2.73-.77.69-1.54,1.37-2.3,2.01-1.72,1.45-3.45,2.75-4.99,3.83-3.18,2.24-4.64,6.21-3.66,9.97,1.36,5.2,3.4,13.25,5.67,23.06Zm-60.19,14.43c-.44,17.22-2.65,36.64-12.36,92.71-8.38,48.39-29.59,89.54-35.24,99.91-.91,1.66-1.28,3.56-1.09,5.44,1.26,11.94,6.04,60.26,9.84,141.88,4.41,94.92,38.61,173.06,38.61,173.06,0,0-7.26-23.84,27.18-79.91,34.44-56.07,27.66-97.81,29.42-155.2,1.77-57.39,4.84-135.8-3.56-221.18-5.25-53.36-11.58-77.06-15.59-87.33-1.64-4.2-6.1-6.55-10.52-5.65-2,.4-4.52.83-7.69,1.22-3.77.47-7.24.75-10.16.9-5.02.27-8.91,4.47-8.81,9.49.13,6.44.22,15.47-.02,24.64Zm-68.48,46.8c3.97,43.71,17.87,118.79,17.87,118.79,0,0,19.77-52.01,28.6-107.64,6.46-40.7,7.36-72.56,7.37-86.72,0-4.49-3.2-8.32-7.61-9.15-5.29-.98-12.94-2.75-21.5-5.78-.16-.06-.32-.11-.48-.17-13.52-4.89-27.75,5.15-27.51,19.52.36,21.3,1.22,48.68,3.26,71.15Z" style="fill: #8c77b6; stroke-width: 0px;"/>
      <path id="triceps-2" data-name="triceps" d="m1019.87,797.31c-.56-15.61,20.21-21.43,27.8-7.78,4.23,7.6,8.71,16.94,13.37,28.43,26.65,65.73,22.32,101.7,21.38,115.67-.94,13.97.1,24.58,12.26,45.29,12.16,20.7,24.58,46.58,0,26.4-24.58-20.18-54.6-57.45-67.8-76.08-13.2-18.63-16.56-23.03-11.9-63.4s5.69-43.47,4.92-67.8c0-.24-.02-.49-.02-.73Zm68.08,56.36c6.8,22.95,9.05,43.39,9.78,55.74.43,7.25,3.87,13.93,9.34,18.7.6.53,1.2,1.07,1.76,1.63,6.06,6.02,7.07,8.8,15.86,43.73s38.04,48.91,38.04,48.91c0,0,0-17.04-1.81-34.9-1.81-17.86-5.69-25.14-8.28-53.6-2.59-28.47-9.83-47.61-25.1-77.12-15.27-29.5-63.92-65.21-63.92-65.21,0,0,10.19,14.39,24.32,62.11Z" style="fill: #8c77b6; stroke-width: 0px;"/>
      <path id="shoulders-2" data-name="shoulders" d="m1001.1,576.98c.4.03.81.04,1.21.05,22.35.4,55.07,20.45,69.52,47.51,14.6,27.33,29.5,60.25,30.12,102.48.16,11.04-.67,21-1.99,29.69-2.69,17.66-23.82,25.39-37.27,13.64-12.24-10.69-27.71-22.57-43.97-30.9-36.96-18.94-60.87-16.46-91.93-36.34s-33.54-33.85-34.47-48.14,21.12-40.37,36.02-44.41c14.91-4.04,33.85-16.77,44.1-26.09,9.22-8.39,25.49-7.71,28.65-7.5Z" style="fill: #8c77b6; stroke-width: 0px;"/>
      <path id="lats-2" data-name="lats" d="m792.64,987.27c27.33-25.78,37.58-45.34,61.49-91.93,9.47-18.44,15.87-38.44,20.14-55.87,5.61-22.86,26.09-38.87,49.63-38.7,7.26.05,15.07-.67,23.08-2.64,34.16-8.39,53.11-32.3,53.11-32.3,0,0,7.45,23.6,4.04,55.9-3.42,32.3-5.9,61.18-22.36,104.97-16.46,43.79-25.58,57.09-39.4,76.42-12.92,18.08-47.37,106.15-47.37,106.15,0,0-4.23.35-11.37-1.2-7.14-1.55-26.71-10.56-65.22-34.47-10.7-6.64-20.04-14.11-27.95-21.41-18.29-16.9-18.21-45.85-.02-62.86.72-.67,1.45-1.36,2.2-2.06Zm121.81-274.33c-12-8.84-29-1.02-29.94,13.86-.29,4.63-.5,9.17-.56,13.26,0,.2,0,.4,0,.6-.38,25.43,20.74,46.18,46.15,44.84,5.68-.3,11.67-1.09,17.84-2.58,34.78-8.39,51.86-32.92,43.79-37.89s-42.55-12.42-62.42-22.67c-4.97-2.56-10.03-5.88-14.84-9.42Z" style="fill: #8c77b6; stroke-width: 0px;"/>
      <path id="glutes-2" data-name="glutes" d="m815.21,1270.73c34.54-21.26,71.3-19.04,93-6.64,21.7,12.4,38.08,34.54,37.2,98.31s-1.26,115.72-20.3,144.74c-19.04,29.02-41.24,34.75-70.03,35.21-31.17.51-53.41-10.5-72.01-23.34-18.6-12.84-23.87-26.42-24.04-48.12s.17-110.27,0-130.19,10.57-31.44,23.42-45.61c12.84-14.17,32.77-24.36,32.77-24.36Z" style="fill: #8c77b6; stroke-width: 0px;"/>
    </g>
  </g>
</svg>